<svg width="603" height="527" viewBox="0 0 603 527" fill="none" xmlns="http://www.w3.org/2000/svg">
<path d="M297.676 527C462.077 527 595.351 518.645 595.351 508.34C595.351 498.034 462.077 489.68 297.676 489.68C133.274 489.68 0 498.034 0 508.34C0 518.645 133.274 527 297.676 527Z" fill="#F7F0EC"/>
<path d="M182.601 55.8488C182.601 57.2431 182.028 58.5134 181.094 59.4331C180.171 60.3582 178.889 60.9274 177.482 60.9274H67.9076C65.093 60.9274 62.787 58.6427 62.787 55.8488C62.787 54.4546 63.3601 53.1843 64.2952 52.2645C65.2168 51.3381 66.5003 50.7703 67.9076 50.7703H73.086C75.131 46.061 79.8547 42.77 85.3533 42.77C89.0545 42.77 92.4005 44.2629 94.8249 46.6702C98.0525 41.2464 104.006 37.6035 110.823 37.6035C112.697 37.6035 114.5 37.8847 116.203 38.3939C119.769 31.7518 126.816 27.2305 134.939 27.2305C144.695 27.2305 152.9 33.7552 155.377 42.6353C157.175 41.7449 159.202 41.2357 161.355 41.2357C167.439 41.2357 172.57 45.2599 174.184 50.7716H177.483C180.295 50.7703 182.601 53.055 182.601 55.8488Z" fill="#F7F0EC"/>
<path d="M603 123.307C603 124.701 602.427 125.971 601.492 126.891C600.569 127.816 599.287 128.385 597.879 128.385H488.305C485.49 128.385 483.184 126.1 483.184 123.307C483.184 121.912 483.757 120.642 484.693 119.722C485.614 118.797 486.898 118.228 488.305 118.228H493.483C495.528 113.519 500.252 110.226 505.751 110.226C509.452 110.226 512.798 111.719 515.222 114.127C518.45 108.703 524.403 105.06 531.22 105.06C533.095 105.06 534.897 105.341 536.601 105.85C540.166 99.2082 547.213 94.6855 555.337 94.6855C565.092 94.6855 573.298 101.21 575.775 110.09C577.572 109.2 579.599 108.691 581.752 108.691C587.836 108.691 592.967 112.715 594.582 118.227H597.881C600.694 118.228 603 120.513 603 123.307Z" fill="#F7F0EC"/>
<path d="M401.753 68.5986C401.753 69.9928 401.18 71.2645 400.245 72.1829C399.322 73.1093 398.04 73.6771 396.632 73.6771H287.058C284.243 73.6771 281.939 71.3924 281.939 68.5986C281.939 67.2043 282.512 65.934 283.447 65.0143C284.369 64.0879 285.652 63.52 287.059 63.52H292.239C294.284 58.8107 299.008 55.5184 304.506 55.5184C308.208 55.5184 311.554 57.0113 313.978 59.4186C317.206 53.9948 323.159 50.3519 329.976 50.3519C331.85 50.3519 333.653 50.6331 335.356 51.1423C338.922 44.5002 345.969 39.9775 354.092 39.9775C363.848 39.9775 372.053 46.5036 374.53 55.3824C376.328 54.492 378.355 53.9828 380.508 53.9828C386.592 53.9828 391.723 58.007 393.338 63.5187H396.636C399.447 63.52 401.753 65.8047 401.753 68.5986Z" fill="#F7F0EC"/>
<path d="M50.9717 188.214C55.4155 203.013 70.3346 202.552 70.0171 214.567C69.6996 226.58 77.3199 235.701 87.7925 233.501C98.2691 231.297 105.853 229.097 110.633 241.048C115.409 252.999 130.647 258.973 136.677 249.537C138.18 247.19 139.803 244.645 141.389 242.147C141.822 241.465 142.255 240.787 142.681 240.117C142.78 239.963 142.88 239.808 142.977 239.653C149.362 229.61 147.254 216.3 137.84 208.958C134.028 205.987 129.47 204.317 124.3 205.825C108.111 210.541 113.944 194.409 104.299 187.585C93.1902 179.72 83.6608 188.622 76.0498 181.922C65.4616 172.606 46.5292 173.414 50.9717 188.214Z" fill="#FFE8DA"/>
<path d="M70.2862 194.613L141.389 242.15C141.822 241.467 142.255 240.789 142.681 240.12L71.6423 192.626C71.088 192.255 70.3346 192.399 69.9619 192.948C69.5866 193.496 69.7319 194.242 70.2862 194.613Z" fill="#AE613A"/>
<path d="M402.718 116.924C419.458 110.014 434.025 100.414 425.943 94.6628C417.855 88.9044 393.105 105.894 381.65 125.908L376.11 131.793C384.715 117.352 387.233 96.4876 379.789 92.5261C372.392 88.5885 371.989 102.627 373.778 115.511C375.141 125.318 373.763 132.048 372.723 135.391L346.558 163.187C360.118 140.279 364.06 107.343 352.281 101.074C340.544 94.8267 339.904 117.103 342.742 137.545C344.888 152.994 342.751 163.636 341.105 168.979L335.888 174.521C336.715 175.567 337.549 176.61 338.39 177.647L369.519 144.578C373.244 143.643 378.627 142.875 385.639 143.342C398.737 144.214 412.843 142.837 408.364 135.8C404.477 129.694 388.45 131.784 375.171 138.574L385.935 127.137C389.876 124.164 395.491 119.906 402.718 116.924Z" fill="#F7F0EC"/>
<path d="M69.7803 128.476C68.03 142.788 80.9807 147.889 76.1992 158.062C71.419 168.232 74.5202 178.852 84.316 180.825C94.1145 182.798 101.436 183.707 101.043 195.702C100.648 207.697 111.454 218.427 120.16 212.568C122.329 211.111 124.672 209.528 126.969 207.976C127.596 207.55 128.222 207.129 128.836 206.712C128.98 206.616 129.123 206.52 129.264 206.424C138.502 200.175 141.692 188 136.386 178.244C134.237 174.296 130.96 171.185 125.967 170.572C110.332 168.647 121.383 156.98 115.685 147.582C109.124 136.756 97.622 140.867 93.6181 132.326C88.0468 120.448 71.5293 114.164 69.7803 128.476Z" fill="#F7F0EC"/>
<path d="M83.9191 141.071L126.969 207.977C127.596 207.552 128.222 207.131 128.836 206.714L85.8268 139.869C85.4918 139.348 84.7922 139.193 84.2662 139.526C83.7388 139.857 83.5841 140.55 83.9191 141.071Z" fill="#FFE8DA"/>
<path d="M416.774 417.091C412.223 432.25 396.94 431.778 397.266 444.087C397.592 456.391 389.786 465.735 379.057 463.48C368.326 461.223 360.557 458.968 355.661 471.21C350.768 483.451 335.161 489.571 328.983 479.906C327.443 477.501 325.782 474.894 324.156 472.337C323.712 471.639 323.269 470.943 322.833 470.258C322.731 470.099 322.629 469.941 322.53 469.783C315.991 459.496 318.15 445.861 327.792 438.342C331.697 435.299 336.365 433.587 341.661 435.132C358.244 439.964 352.268 423.438 362.147 416.448C373.525 408.393 383.286 417.51 391.084 410.647C401.932 401.103 421.326 401.93 416.774 417.091Z" fill="#FFE8DA"/>
<path d="M396.99 423.644L324.157 472.337C323.713 471.639 323.27 470.943 322.834 470.258L395.6 421.609C396.168 421.229 396.939 421.377 397.322 421.94C397.706 422.501 397.558 423.266 396.99 423.644Z" fill="#AE613A"/>
<path d="M390.357 361.114C392.149 375.773 378.885 380.999 383.782 391.42C388.68 401.838 385.502 412.715 375.468 414.736C365.431 416.756 357.931 417.688 358.333 429.975C358.738 442.262 347.668 453.252 338.751 447.251C336.529 445.76 334.128 444.139 331.776 442.547C331.134 442.113 330.493 441.68 329.863 441.253C329.716 441.154 329.57 441.057 329.424 440.959C319.962 434.558 316.694 422.087 322.13 412.094C324.331 408.049 327.688 404.862 332.801 404.235C348.816 402.263 337.495 390.313 343.333 380.687C350.055 369.597 361.835 373.807 365.937 365.059C371.647 352.891 388.565 346.454 390.357 361.114Z" fill="#F7F0EC"/>
<path d="M375.874 374.016L331.778 442.549C331.136 442.115 330.494 441.682 329.864 441.255L373.921 372.784C374.264 372.25 374.981 372.092 375.519 372.432C376.059 372.772 376.219 373.481 375.874 374.016Z" fill="#FFE8DA"/>
<path d="M592.705 320.403C596.76 320.403 600.059 323.672 600.059 327.689C600.059 331.707 596.76 334.975 592.705 334.975C588.65 334.975 585.351 331.707 585.351 327.689C585.351 323.672 588.65 320.403 592.705 320.403ZM592.705 322.688C589.923 322.688 587.659 324.931 587.659 327.688C587.659 330.444 589.923 332.688 592.705 332.688C595.489 332.688 597.752 330.444 597.752 327.688C597.753 324.931 595.489 322.688 592.705 322.688Z" fill="#AE613A"/>
<path d="M585.225 283.371C589.28 283.371 592.579 286.639 592.579 290.657C592.579 294.674 589.28 297.943 585.225 297.943C581.17 297.943 577.871 294.674 577.871 290.657C577.87 286.641 581.17 283.371 585.225 283.371ZM585.225 285.657C582.441 285.657 580.178 287.9 580.178 290.657C580.178 293.414 582.443 295.657 585.225 295.657C588.008 295.657 590.271 293.414 590.271 290.657C590.271 287.9 588.007 285.657 585.225 285.657Z" fill="#DFC0B0"/>
<path d="M562.855 273.111C562.855 273.742 563.371 274.253 564.008 274.253H569.095C569.733 274.253 570.248 273.742 570.248 273.111C570.248 272.481 569.731 271.969 569.095 271.969H564.008C563.37 271.967 562.855 272.479 562.855 273.111Z" fill="#AE613A"/>
<path d="M553.952 273.111C553.952 273.742 554.469 274.253 555.105 274.253H560.192C560.83 274.253 561.345 273.742 561.345 273.111C561.345 272.481 560.829 271.969 560.192 271.969H555.105C554.469 271.967 553.952 272.479 553.952 273.111Z" fill="#AE613A"/>
<path d="M560.947 266.035V270.563C560.947 271.195 561.464 271.707 562.101 271.707C562.739 271.707 563.254 271.195 563.254 270.563V266.035C563.254 265.404 562.738 264.893 562.101 264.893C561.464 264.893 560.947 265.404 560.947 266.035Z" fill="#AE613A"/>
<path d="M560.947 275.658V280.186C560.947 280.816 561.464 281.328 562.101 281.328C562.739 281.328 563.254 280.816 563.254 280.186V275.658C563.254 275.026 562.738 274.516 562.101 274.516C561.464 274.514 560.947 275.026 560.947 275.658Z" fill="#AE613A"/>
<path d="M571.151 312.027C571.151 312.658 571.667 313.17 572.304 313.17H577.39C578.028 313.17 578.543 312.658 578.543 312.027C578.543 311.396 578.027 310.884 577.39 310.884H572.304C571.667 310.884 571.151 311.396 571.151 312.027Z" fill="#DFC0B0"/>
<path d="M562.248 312.027C562.248 312.658 562.765 313.17 563.402 313.17H568.489C569.127 313.17 569.644 312.658 569.644 312.027C569.644 311.396 569.127 310.884 568.489 310.884H563.402C562.765 310.884 562.248 311.396 562.248 312.027Z" fill="#DFC0B0"/>
<path d="M569.243 304.951V309.479C569.243 310.109 569.759 310.621 570.396 310.621C571.033 310.621 571.549 310.109 571.549 309.479V304.951C571.549 304.32 571.032 303.809 570.396 303.809C569.759 303.809 569.243 304.32 569.243 304.951Z" fill="#DFC0B0"/>
<path d="M569.243 314.573V319.101C569.243 319.731 569.759 320.243 570.396 320.243C571.033 320.243 571.549 319.731 571.549 319.101V314.573C571.549 313.943 571.032 313.431 570.396 313.431C569.759 313.431 569.243 313.943 569.243 314.573Z" fill="#DFC0B0"/>
<path d="M35.205 144.103C35.205 148.121 31.9061 151.389 27.8511 151.389C23.796 151.389 20.4971 148.121 20.4971 144.103C20.4971 140.086 23.796 136.817 27.8511 136.817C31.9061 136.817 35.205 140.086 35.205 144.103ZM22.8045 144.103C22.8045 146.86 25.0688 149.103 27.8511 149.103C30.6347 149.103 32.8976 146.86 32.8976 144.103C32.8976 141.347 30.6333 139.103 27.8511 139.103C25.0688 139.103 22.8045 141.345 22.8045 144.103Z" fill="#AE613A"/>
<path d="M42.6868 107.074C42.6868 111.091 39.3878 114.36 35.3328 114.36C31.2778 114.36 27.9789 111.091 27.9789 107.074C27.9789 103.056 31.2778 99.7881 35.3328 99.7881C39.3878 99.7881 42.6868 103.056 42.6868 107.074ZM30.2862 107.074C30.2862 109.831 32.5505 112.074 35.3328 112.074C38.1164 112.074 40.3794 109.831 40.3794 107.074C40.3794 104.317 38.1151 102.074 35.3328 102.074C32.5505 102.073 30.2862 104.316 30.2862 107.074Z" fill="#AE613A"/>
<path d="M57.7028 89.5271C57.7028 90.1576 57.1861 90.6694 56.5498 90.6694H51.4628C50.8264 90.6694 50.3098 90.1576 50.3098 89.5271C50.3098 88.8953 50.8264 88.3848 51.4628 88.3848H56.5498C57.1861 88.3848 57.7028 88.8966 57.7028 89.5271Z" fill="#AE613A"/>
<path d="M66.6052 89.5271C66.6052 90.1576 66.0886 90.6694 65.4522 90.6694H60.3653C59.7276 90.6694 59.2123 90.1576 59.2123 89.5271C59.2123 88.8953 59.7289 88.3848 60.3653 88.3848H65.4522C66.0886 88.3848 66.6052 88.8966 66.6052 89.5271Z" fill="#AE613A"/>
<path d="M59.6106 82.4519V86.9799C59.6106 87.6117 59.0939 88.1236 58.4576 88.1236C57.8199 88.1236 57.3046 87.6117 57.3046 86.9799V82.4519C57.3046 81.8214 57.8212 81.3096 58.4576 81.3096C59.0939 81.3082 59.6106 81.8201 59.6106 82.4519Z" fill="#AE613A"/>
<path d="M59.6106 92.074V96.602C59.6106 97.2325 59.0939 97.7443 58.4576 97.7443C57.8199 97.7443 57.3046 97.2325 57.3046 96.602V92.074C57.3046 91.4422 57.8212 90.9316 58.4576 90.9316C59.0939 90.9316 59.6106 91.4422 59.6106 92.074Z" fill="#AE613A"/>
<path d="M49.407 128.441C49.407 129.072 48.8904 129.584 48.254 129.584H43.167C42.5293 129.584 42.014 129.072 42.014 128.441C42.014 127.809 42.5307 127.299 43.167 127.299H48.254C48.8904 127.297 49.407 127.809 49.407 128.441Z" fill="#DFC0B0"/>
<path d="M58.3095 128.441C58.3095 129.072 57.7928 129.584 57.1551 129.584H52.0682C51.4305 129.584 50.9138 129.072 50.9138 128.441C50.9138 127.809 51.4305 127.299 52.0682 127.299H57.1551C57.7928 127.297 58.3095 127.809 58.3095 128.441Z" fill="#DFC0B0"/>
<path d="M51.3148 121.366V125.894C51.3148 126.524 50.7982 127.036 50.1618 127.036C49.5241 127.036 49.0088 126.524 49.0088 125.894V121.366C49.0088 120.735 49.5254 120.224 50.1618 120.224C50.7982 120.224 51.3148 120.735 51.3148 121.366Z" fill="#DFC0B0"/>
<path d="M51.3148 130.989V135.517C51.3148 136.148 50.7982 136.659 50.1618 136.659C49.5241 136.659 49.0088 136.148 49.0088 135.517V130.989C49.0088 130.359 49.5254 129.847 50.1618 129.847C50.7982 129.845 51.3148 130.357 51.3148 130.989Z" fill="#DFC0B0"/>
<path d="M485.33 146.42V164.811C485.33 167.242 487.322 169.214 489.774 169.214H523.479L533.654 172.831C534.7 173.203 535.699 172.185 535.298 171.161L531.449 161.313V146.42C531.449 143.989 529.458 142.018 527.003 142.018H489.774C487.32 142.018 485.33 143.989 485.33 146.42Z" fill="#AE613A"/>
<g opacity="0.5">
<path d="M514.61 156.139C514.61 157.898 516.05 159.325 517.826 159.325C519.602 159.325 521.041 157.898 521.041 156.139C521.041 154.379 519.602 152.953 517.826 152.953C516.05 152.954 514.61 154.379 514.61 156.139Z" fill="#DFC0B0"/>
<path d="M504.432 156.139C504.432 157.898 505.872 159.325 507.648 159.325C509.424 159.325 510.863 157.898 510.863 156.139C510.863 154.379 509.424 152.953 507.648 152.953C505.872 152.954 504.432 154.379 504.432 156.139Z" fill="#DFC0B0"/>
<path d="M494.256 156.139C494.256 157.898 495.695 159.325 497.471 159.325C499.247 159.325 500.687 157.898 500.687 156.139C500.687 154.379 499.247 152.953 497.471 152.953C495.695 152.953 494.256 154.379 494.256 156.139Z" fill="#DFC0B0"/>
</g>
<path d="M122.326 143.295V487.081C122.326 497.858 131.141 506.592 142.019 506.592H314.816C320.281 506.592 325.221 504.388 328.792 500.831C332.325 497.301 334.509 492.445 334.509 487.081V143.295C334.509 132.518 325.694 123.784 314.816 123.784H142.019C138.803 123.784 135.768 124.547 133.087 125.902C126.697 129.127 122.326 135.703 122.326 143.295Z" fill="#6C2D0D"/>
<path d="M129.663 143.295V487.081C129.663 497.858 138.478 506.592 149.355 506.592H322.153C327.618 506.592 332.558 504.388 336.127 500.831C339.66 497.301 341.845 492.445 341.845 487.081V143.295C341.845 132.518 333.03 123.784 322.153 123.784H149.355C146.14 123.784 143.105 124.547 140.423 125.902C134.034 129.127 129.663 135.703 129.663 143.295Z" fill="#AE613A"/>
<path d="M125.929 208.334H123.693C120.881 208.334 118.602 206.076 118.602 203.291V182.33C118.602 179.544 120.881 177.286 123.693 177.286H125.929V208.334Z" fill="#AE613A"/>
<path d="M125.929 248.942H123.693C120.881 248.942 118.602 246.684 118.602 243.898V222.937C118.602 220.152 120.881 217.894 123.693 217.894H125.929V248.942Z" fill="#AE613A"/>
<path d="M341.845 208.334H343.597C345.801 208.334 347.586 206.564 347.586 204.382V181.238C347.586 179.056 345.801 177.286 343.597 177.286H341.845V208.334Z" fill="#AE613A"/>
<path d="M332.018 142.112V488.258C332.018 489.451 331.773 490.587 331.329 491.62C330.004 494.703 326.93 496.852 323.345 496.852H148.163C143.378 496.852 139.489 493.013 139.489 488.257V142.112C139.489 141.632 139.526 141.159 139.606 140.699C140.095 137.776 142.082 135.347 144.755 134.201C145.314 133.968 145.895 133.788 146.502 133.675C147.037 133.568 147.595 133.515 148.163 133.515H323.345C328.134 133.515 332.018 137.367 332.018 142.112Z" fill="white"/>
<path d="M332.018 142.112V159.86H139.489V142.112C139.489 141.632 139.526 141.159 139.606 140.699C140.095 137.776 142.082 135.347 144.755 134.201C145.314 133.968 145.895 133.788 146.502 133.675C147.037 133.568 147.595 133.515 148.163 133.515H323.345C328.134 133.515 332.018 137.367 332.018 142.112Z" fill="#F7F0EC"/>
<path d="M301.622 133.504L292.688 146.971C290.197 150.727 285.964 152.99 281.426 152.99H195.091C190.553 152.99 186.32 150.728 183.828 146.971L174.895 133.504C174.895 132.109 176.047 130.965 177.459 130.965H299.059C300.467 130.965 301.622 132.11 301.622 133.504Z" fill="#AE613A"/>
<path opacity="0.3" d="M268.888 143.241H193.935C192.701 143.241 191.691 142.24 191.691 141.018V140.049C191.691 138.826 192.701 137.825 193.935 137.825H268.888C270.122 137.825 271.132 138.826 271.132 140.049V141.018C271.134 142.241 270.123 143.241 268.888 143.241Z" fill="#F7F0EC"/>
<path opacity="0.3" d="M285.634 140.353C285.634 142.147 284.167 143.603 282.354 143.603C280.542 143.603 279.074 142.149 279.074 140.353C279.074 138.559 280.542 137.104 282.354 137.104C284.167 137.104 285.634 138.558 285.634 140.353Z" fill="#F7F0EC"/>
<path d="M155.946 373.06C155.946 374.646 157.243 375.931 158.844 375.931H228.107C229.706 375.931 231.005 374.646 231.005 373.06C231.005 371.475 229.708 370.188 228.107 370.188H158.844C157.243 370.19 155.946 371.475 155.946 373.06Z" fill="#F7F0EC"/>
<path d="M243.798 373.06C243.798 374.646 245.095 375.931 246.696 375.931H315.96C317.559 375.931 318.858 374.646 318.858 373.06C318.858 371.475 317.561 370.188 315.96 370.188H246.696C245.095 370.19 243.798 371.475 243.798 373.06Z" fill="#F7F0EC"/>
<path d="M155.946 389.066C155.946 390.652 157.243 391.937 158.844 391.937H228.107C229.706 391.937 231.005 390.652 231.005 389.066C231.005 387.481 229.708 386.194 228.107 386.194H158.844C157.243 386.196 155.946 387.481 155.946 389.066Z" fill="#F7F0EC"/>
<path d="M243.798 389.066C243.798 390.652 245.095 391.937 246.696 391.937H315.96C317.559 391.937 318.858 390.652 318.858 389.066C318.858 387.481 317.561 386.194 315.96 386.194H246.696C245.095 386.196 243.798 387.481 243.798 389.066Z" fill="#F7F0EC"/>
<path d="M155.946 405.072C155.946 406.657 157.243 407.944 158.844 407.944H228.107C229.706 407.944 231.005 406.659 231.005 405.072C231.005 403.487 229.708 402.201 228.107 402.201H158.844C157.243 402.203 155.946 403.487 155.946 405.072Z" fill="#F7F0EC"/>
<path d="M243.798 405.072C243.798 406.657 245.095 407.944 246.696 407.944H315.96C317.559 407.944 318.858 406.659 318.858 405.072C318.858 403.487 317.561 402.201 315.96 402.201H246.696C245.095 402.203 243.798 403.487 243.798 405.072Z" fill="#F7F0EC"/>
<path d="M155.946 421.078C155.946 422.663 157.243 423.949 158.844 423.949H228.107C229.706 423.949 231.005 422.664 231.005 421.078C231.005 419.493 229.708 418.207 228.107 418.207H158.844C157.243 418.207 155.946 419.493 155.946 421.078Z" fill="#F7F0EC"/>
<path d="M243.798 421.078C243.798 422.663 245.095 423.949 246.696 423.949H315.96C317.559 423.949 318.858 422.664 318.858 421.078C318.858 419.493 317.561 418.207 315.96 418.207H246.696C245.095 418.207 243.798 419.493 243.798 421.078Z" fill="#F7F0EC"/>
<path d="M200.26 458.399H160.895C158.176 458.399 155.973 456.216 155.973 453.523V448.755C155.973 446.061 158.177 443.878 160.895 443.878H200.258C202.977 443.878 205.181 446.061 205.181 448.755V453.523C205.181 456.216 202.977 458.399 200.26 458.399Z" fill="#F7F0EC"/>
<path d="M257.536 458.399H218.172C215.453 458.399 213.249 456.216 213.249 453.523V448.755C213.249 446.061 215.453 443.878 218.172 443.878H257.536C260.255 443.878 262.457 446.061 262.457 448.755V453.523C262.459 456.216 260.255 458.399 257.536 458.399Z" fill="#F7F0EC"/>
<path d="M313.934 458.399H274.569C271.851 458.399 269.647 456.216 269.647 453.523V448.755C269.647 446.061 271.851 443.878 274.569 443.878H313.934C316.651 443.878 318.855 446.061 318.855 448.755V453.523C318.855 456.216 316.651 458.399 313.934 458.399Z" fill="#F7F0EC"/>
<path d="M332.018 211.465V342.175H166.306V211.465H173.926L173.856 211.392L173.94 211.465H332.018Z" fill="#F7F0EC"/>
<path d="M366.539 201.364H175.545V332.076H366.539V201.364Z" fill="#AE613A"/>
<path d="M374.186 201.364H183.192V332.076H374.186V201.364Z" fill="#AE613A"/>
<path d="M183.095 201.29L271.532 292.494C275.411 296.494 281.87 296.494 285.749 292.494L374.186 201.29L285.195 279.762C281.458 283.056 275.824 283.056 272.088 279.762L183.095 201.29Z" fill="#6C2D0D"/>
<path d="M260.289 269.011L188.724 332.076H183.192V328.744L256.174 264.431L260.289 269.011Z" fill="#AE613A"/>
<path d="M374.186 329.187V332.076H368.153L296.587 269.011L300.702 264.431L374.186 329.187Z" fill="#AE613A"/>
<path d="M183.187 201.363L272.389 279.963C275.979 283.126 281.39 283.126 284.979 279.963L374.182 201.363H183.187Z" fill="#DFC0B0"/>
<g opacity="0.5">
<path d="M276.375 213.601H210.267C208.067 213.601 206.284 211.835 206.284 209.655C206.284 207.476 208.067 205.71 210.267 205.71H276.375C278.575 205.71 280.358 207.476 280.358 209.655C280.358 211.835 278.575 213.601 276.375 213.601Z" fill="#DFC0B0"/>
</g>
<g opacity="0.5">
<path d="M296.606 213.601H289.915C287.716 213.601 285.933 211.835 285.933 209.655C285.933 207.476 287.716 205.71 289.915 205.71H296.606C298.806 205.71 300.589 207.476 300.589 209.655C300.589 211.835 298.806 213.601 296.606 213.601Z" fill="#DFC0B0"/>
</g>
<path d="M344.218 212.373H324.067C318.726 212.373 314.396 208.084 314.396 202.792V182.827C314.396 177.537 318.726 173.247 324.066 173.247H344.218C349.56 173.247 353.888 177.537 353.888 182.827V202.792C353.888 208.085 349.558 212.373 344.218 212.373Z" fill="#AE613A"/>
<path d="M347.71 212.373H327.558C322.217 212.373 317.888 208.084 317.888 202.792V182.827C317.888 177.537 322.217 173.247 327.557 173.247H347.708C353.05 173.247 357.379 177.537 357.379 182.827V202.792C357.379 208.085 353.05 212.373 347.71 212.373Z" fill="#AE613A"/>
<path d="M334.197 189.587L333.125 179.293H339.559L338.486 189.587H334.197ZM336.342 196.211C335.42 196.211 334.666 195.933 334.078 195.377C333.49 194.805 333.197 194.13 333.197 193.352C333.197 192.557 333.49 191.89 334.078 191.35C334.666 190.81 335.42 190.54 336.342 190.54C337.279 190.54 338.034 190.81 338.605 191.35C339.193 191.89 339.487 192.557 339.487 193.352C339.487 194.13 339.193 194.805 338.605 195.377C338.034 195.933 337.279 196.211 336.342 196.211Z" fill="white"/>
<path d="M411.451 484.433L410.697 497.884L421.712 498.123L423.059 483.992L411.451 484.433Z" fill="#FDA893"/>
<path d="M415.067 495.993C415.067 495.993 420.738 494.72 422.289 494.808C423.84 494.897 433.798 506.807 437.273 507.618C443.575 509.087 443.207 518.909 439.325 519.252C428.095 520.242 409.157 514.846 409.157 514.846C409.157 514.846 407.877 502.177 408.795 498.25C409.71 494.326 411.9 497.039 415.067 495.993Z" fill="#DFC0B0"/>
<path d="M423.909 507.101C423.707 507.137 423.493 507.094 423.314 506.966C422.969 506.717 422.893 506.237 423.145 505.895C423.228 505.78 425.234 503.078 427.621 502.201C430.796 501.031 432.95 502.974 433.04 503.057C433.354 503.345 433.37 503.831 433.078 504.142C432.787 504.451 432.296 504.468 431.983 504.179C431.925 504.127 430.421 502.81 428.159 503.639C426.215 504.354 424.415 506.773 424.397 506.798C424.275 506.964 424.097 507.066 423.909 507.101Z" fill="#FBF7F5"/>
<path d="M421.857 504.699C421.657 504.735 421.441 504.692 421.263 504.564C420.917 504.315 420.84 503.835 421.093 503.492C421.176 503.378 423.182 500.676 425.569 499.799C428.747 498.629 430.898 500.571 430.988 500.656C431.302 500.944 431.318 501.43 431.026 501.74C430.735 502.05 430.244 502.068 429.931 501.777C429.872 501.725 428.368 500.408 426.107 501.237C424.154 501.956 422.363 504.371 422.346 504.396C422.223 504.561 422.046 504.664 421.857 504.699Z" fill="#FBF7F5"/>
<path d="M426.822 509.188C426.621 509.224 426.406 509.182 426.227 509.053C425.881 508.804 425.805 508.324 426.058 507.98C426.141 507.866 428.147 505.164 430.534 504.287C433.712 503.115 435.863 505.06 435.953 505.142C436.267 505.432 436.283 505.917 435.991 506.227C435.7 506.538 435.209 506.555 434.896 506.265C434.836 506.213 433.332 504.896 431.072 505.725C429.118 506.443 427.328 508.859 427.31 508.883C427.188 509.051 427.012 509.154 426.822 509.188Z" fill="#FBF7F5"/>
<path d="M451.956 320.525C451.956 320.525 451.728 323.684 451.311 328.922C451.203 330.309 451.082 331.842 450.947 333.508C449.521 351.089 446.763 382.88 443.75 405.434C439.525 437.051 426.219 489.009 426.219 489.009L412.482 488.543L411.124 488.489L407.868 488.383C407.868 488.383 410.155 455.512 413.074 426.974C414.998 408.153 416.142 363.619 416.694 335.494C416.976 320.991 417.111 310.848 417.111 310.848L451.956 320.525Z" fill="#6C2D0D"/>
<path d="M451.957 320.525C451.957 320.525 451.728 323.684 451.311 328.922C451.203 330.309 451.082 331.842 450.948 333.508C444.611 334.681 427.188 335.494 416.694 335.494C416.976 320.991 417.111 310.848 417.111 310.848L451.957 320.525Z" fill="#AE613A"/>
<path d="M424.512 328.694C424.498 329.774 423.234 432.237 412.484 488.541L411.125 488.488C421.888 432.357 423.153 329.747 423.166 328.681L424.512 328.694Z" fill="#AE613A"/>
<path d="M497.598 487.017L497.147 499.151L485.951 498.564L485.698 485.679L497.598 487.017Z" fill="#FDA893"/>
<path d="M494.292 498.593C494.292 498.593 496.731 495.445 498.63 495.609C500.527 495.773 515.011 507.532 520.017 508.558C525.025 509.585 523.994 513.234 523.046 515.092C522.097 516.95 483.003 513.801 483.003 513.801C483.003 513.801 482.1 502.244 483.432 498.733C484.764 495.221 490.353 499.372 494.292 498.593Z" fill="#DFC0B0"/>
<path d="M502.273 506.769C502.094 506.818 501.896 506.8 501.724 506.699C501.389 506.503 501.279 506.076 501.475 505.744C501.541 505.633 503.114 503.017 505.194 502.017C507.96 500.683 510.077 502.253 510.166 502.32C510.474 502.553 510.534 502.992 510.297 503.297C510.061 503.602 509.62 503.661 509.311 503.426C509.253 503.383 507.778 502.325 505.807 503.271C504.113 504.086 502.701 506.429 502.687 506.453C502.592 506.613 502.441 506.721 502.273 506.769Z" fill="#FBF7F5"/>
<path d="M500.205 504.776C500.027 504.825 499.828 504.806 499.656 504.707C499.321 504.511 499.209 504.084 499.407 503.752C499.473 503.641 501.046 501.025 503.124 500.025C505.893 498.691 508.01 500.26 508.098 500.328C508.406 500.561 508.466 501 508.229 501.305C507.993 501.61 507.551 501.669 507.243 501.434C507.185 501.392 505.709 500.332 503.739 501.28C502.037 502.098 500.633 504.437 500.619 504.461C500.524 504.62 500.373 504.728 500.205 504.776Z" fill="#FBF7F5"/>
<path d="M505.09 508.403C504.911 508.453 504.713 508.433 504.541 508.333C504.206 508.138 504.095 507.711 504.292 507.379C504.358 507.268 505.931 504.652 508.011 503.652C510.78 502.318 512.896 503.887 512.985 503.955C513.293 504.188 513.351 504.627 513.115 504.932C512.88 505.237 512.437 505.296 512.129 505.061C512.071 505.018 510.594 503.96 508.626 504.906C506.924 505.725 505.519 508.064 505.506 508.088C505.409 508.247 505.258 508.356 505.09 508.403Z" fill="#FBF7F5"/>
<path d="M499.637 490.183L488.257 489.344L486.9 489.251L484.136 489.046C484.136 489.046 477.145 423.124 474.971 405.563C473.08 390.308 464.255 356.033 458.523 334.705C456.899 328.651 455.523 323.641 454.616 320.403C453.925 317.857 453.516 316.409 453.516 316.409L491.562 312.76C491.562 312.76 491.669 313.588 491.843 315.078C492.213 318.128 492.925 323.971 493.785 331.316C496.161 351.307 499.775 382.418 501.175 398.255C504.766 439.036 499.637 490.183 499.637 490.183Z" fill="#6C2D0D"/>
<path d="M493.786 331.316L458.525 334.704C456.901 328.65 455.524 323.64 454.618 320.402L491.845 315.078C492.215 318.128 492.926 323.972 493.786 331.316Z" fill="#AE613A"/>
<path d="M488.255 489.342L486.899 489.249C486.238 468.864 484.219 417.951 480.097 396.368C474.916 369.161 463.002 329.545 462.88 329.145L464.175 328.764C464.298 329.165 476.231 368.849 481.419 396.124C485.568 417.843 487.605 468.999 488.255 489.342Z" fill="#AE613A"/>
<path d="M493.451 219.831C494.044 224.969 494.671 229.899 495.223 234.029C496.112 240.691 496.8 245.269 496.8 245.269L502.251 262.67C504.117 268.623 510.913 271.502 516.549 268.733C516.644 268.689 516.744 268.638 516.842 268.59C526.572 263.647 520.503 244.622 520.503 244.622L518.63 244.537C517.804 242.459 515.576 237.16 512.744 230.506C512.401 229.689 512.043 228.848 511.683 227.996C511.08 226.582 510.457 225.12 509.822 223.626C508.919 221.508 507.987 219.324 507.045 217.125C500.108 200.878 492.719 183.683 492.719 183.683C490.08 185.026 491.573 203.474 493.451 219.831Z" fill="#FDA893"/>
<path d="M493.451 219.831C494.044 224.969 494.671 229.899 495.223 234.029C502.441 231.622 507.172 226.986 509.822 223.626C508.919 221.508 507.987 219.324 507.045 217.125L493.451 219.831Z" fill="#FD857D"/>
<path d="M508.657 251.154C508.699 251.158 508.735 251.158 508.777 251.157C509.156 251.147 509.482 250.866 509.53 250.484C510.679 241.337 511.914 234.568 512.747 230.507C512.404 229.691 512.043 228.85 511.684 227.998C510.897 231.58 509.375 239.205 507.98 250.292C507.928 250.713 508.229 251.098 508.657 251.154Z" fill="#FD857D"/>
<path d="M514.944 216.418C514.944 216.418 513.378 218.357 510.61 220.511C507.263 223.133 501.063 226.408 494.861 226.617C493.551 204.785 492.283 183.882 490.54 178.502C493.488 181.926 508.431 200.93 514.944 216.418Z" fill="#DFC0B0"/>
<path d="M510.086 251.555C510.086 251.555 510.736 229.641 515.295 224.84C519.853 220.039 524.097 218.127 528.519 218.145C532.941 218.162 537.113 218.573 536.901 220.381C536.901 220.381 546.998 218.538 551.614 221C556.23 223.46 538.354 226.313 533.03 226.621C527.705 226.927 524.987 229.968 524.873 233.122C524.76 236.275 522.361 257.215 522.361 257.215L510.086 251.555Z" fill="#FDA893"/>
<path d="M498.535 320.812C468.802 329.076 438.867 329.809 408.69 323.078C408.38 314.6 407.775 286.115 407.627 256.724C407.627 255.178 407.613 253.618 407.613 252.058V249.819C407.6 249.046 407.6 248.26 407.6 247.486C407.6 246.7 407.6 245.927 407.587 245.154C407.6 244.381 407.587 243.608 407.6 242.821C407.587 242.075 407.6 241.328 407.587 240.582C407.587 239.809 407.587 239.022 407.6 238.262C407.6 237.489 407.613 236.703 407.613 235.93C407.613 235.143 407.613 234.37 407.627 233.597C407.627 232.851 407.627 232.104 407.64 231.358C407.64 229.878 407.654 228.385 407.667 226.932V226.706C407.681 225.706 407.681 224.706 407.708 223.72C407.963 200.793 408.757 182.372 410.533 179.813C414.825 173.641 434.925 164.151 441.06 159.659L441.073 160.632C441.073 160.632 445.11 165.644 449.496 165.15C453.478 164.724 456.424 160.059 456.909 159.219C460.07 161.311 467.322 164.631 474.372 168.189C481.408 171.748 488.23 175.521 490.544 178.506C492.508 181.066 494.136 200.567 495.401 224.493V224.56C495.428 225.013 495.441 225.453 495.468 225.906V225.973C495.481 226.306 495.508 226.653 495.522 227.012C495.562 227.719 495.602 228.425 495.629 229.145C495.67 229.878 495.71 230.625 495.737 231.371C495.777 232.144 495.804 232.917 495.858 233.704C495.885 234.477 495.912 235.25 495.966 236.036C495.993 236.796 496.033 237.569 496.06 238.356C496.1 239.089 496.127 239.835 496.154 240.582C496.194 241.368 496.221 242.141 496.262 242.928C496.289 243.688 496.329 244.461 496.356 245.247C496.383 246.02 496.423 246.807 496.45 247.58C496.49 248.313 496.517 249.059 496.544 249.806C496.598 251.365 496.665 252.912 496.719 254.471C497.822 283.756 498.428 312.254 498.535 320.812Z" fill="#DFC0B0"/>
<path d="M436.613 182.067C436.313 182.007 436.079 181.754 436.059 181.436C436.035 181.058 436.326 180.73 436.708 180.706C454.272 179.586 460.301 166.453 460.36 166.321C460.514 165.973 460.925 165.814 461.275 165.968C461.626 166.12 461.786 166.525 461.632 166.873C461.569 167.017 460.027 170.45 456.188 174.059C452.653 177.379 446.42 181.466 436.798 182.079C436.733 182.083 436.671 182.079 436.613 182.067Z" fill="#AE613A"/>
<path d="M495.964 236.033L407.596 238.263C407.601 237.483 407.607 236.705 407.613 235.925C407.619 235.145 407.612 234.367 407.631 233.6L495.742 231.377C495.774 232.142 495.808 232.921 495.854 233.699C495.885 234.477 495.918 235.254 495.964 236.033Z" fill="#AE613A"/>
<path d="M496.356 245.246L407.601 247.485C407.595 246.706 407.6 245.927 407.593 245.16C407.599 244.38 407.592 243.602 407.597 242.822L496.16 240.587C496.193 241.365 496.225 242.144 496.258 242.922C496.29 243.689 496.322 244.467 496.356 245.246Z" fill="#AE613A"/>
<path d="M496.722 254.471L407.632 256.719C407.631 255.175 407.618 253.616 407.616 252.058L496.539 249.813C496.603 251.37 496.669 252.914 496.722 254.471Z" fill="#AE613A"/>
<path d="M486.051 212.314C488.714 215.697 492.675 223.413 494.455 226.98C494.698 227.47 494.899 227.881 495.052 228.193C495.254 228.603 495.366 228.84 495.375 228.857C495.433 228.978 495.52 229.076 495.628 229.142C495.594 228.428 495.558 227.717 495.522 227.01C495.507 226.659 495.485 226.309 495.468 225.963L495.466 225.906C495.102 225.18 494.671 224.325 494.19 223.388C492.17 219.472 489.295 214.196 487.148 211.467C486.912 211.168 486.475 211.116 486.172 211.349C485.868 211.582 485.819 212.017 486.051 212.314Z" fill="#AE613A"/>
<path d="M470.98 298.397C471.344 298.388 471.641 298.101 471.656 297.737C471.671 297.358 471.373 297.038 470.99 297.022C451.412 296.246 439.501 286.726 432.955 278.879C425.84 270.345 423.333 261.876 423.309 261.792C423.203 261.427 422.819 261.215 422.451 261.32C422.082 261.424 421.868 261.805 421.974 262.17C422.077 262.525 424.566 270.96 431.848 279.711C438.575 287.795 450.817 297.599 470.935 298.397C470.949 298.399 470.966 298.399 470.98 298.397Z" fill="#AE613A"/>
<path d="M460.17 286.365C460.477 286.357 460.751 286.148 460.827 285.839C460.917 285.47 460.688 285.098 460.315 285.007C443.214 280.887 439.575 266.916 439.54 266.775C439.448 266.406 439.072 266.179 438.7 266.27C438.328 266.359 438.099 266.731 438.19 267.1C438.228 267.254 439.144 270.899 442.295 275.114C445.194 278.992 450.618 284.087 459.987 286.345C460.049 286.36 460.11 286.367 460.17 286.365Z" fill="#AE613A"/>
<path d="M416.749 209.911C414.166 213.363 410.412 221.174 408.717 224.786C408.488 225.28 408.3 225.706 408.152 226.013C407.963 226.426 407.856 226.666 407.856 226.692C407.815 226.786 407.748 226.866 407.667 226.932V226.706C407.681 225.706 407.681 224.706 407.708 223.72C408.031 222.987 408.448 222.121 408.892 221.187C410.816 217.229 413.56 211.883 415.632 209.098C415.861 208.791 416.291 208.724 416.601 208.951C416.91 209.178 416.978 209.617 416.749 209.911Z" fill="#AE613A"/>
<path d="M502.304 222.892L562.549 221.371C564.268 221.327 565.625 219.913 565.582 218.209L565.536 216.447C565.492 214.745 564.064 213.4 562.345 213.442L502.099 214.963C500.381 215.007 499.024 216.422 499.067 218.125L499.113 219.887C499.157 221.591 500.586 222.936 502.304 222.892Z" fill="#AE613A"/>
<path d="M565.647 221.292L576.949 174.62C577.584 171.998 575.538 169.494 572.818 169.563L545.326 170.256C543.47 170.303 541.873 171.566 541.417 173.348L528.908 222.218L565.647 221.292Z" fill="#6C2D0D"/>
<path d="M541.416 173.349L529.01 221.817L525.869 221.895L538.275 173.428C538.735 171.646 540.328 170.381 542.184 170.333L545.326 170.253C543.47 170.302 541.876 171.567 541.416 173.349Z" fill="#AE613A"/>
<g opacity="0.5">
<path d="M549.122 198.011C548.487 201.087 550.473 203.517 553.56 203.439C556.646 203.361 559.662 200.805 560.299 197.728C560.934 194.653 558.948 192.223 555.862 192.301C552.775 192.379 549.759 194.936 549.122 198.011Z" fill="#6C2D0D"/>
</g>
<path d="M428.884 127.911C428.884 127.911 427.057 128.842 426.534 125.289C426.01 121.737 427.462 121.101 426.383 119.418C425.304 117.734 424.556 115.528 426.243 113.946C427.93 112.362 424.358 108.474 426.309 106.457C428.261 104.441 431.489 103.942 432.725 101.686C433.963 99.4302 435.9 95.1234 442.025 95.0554C448.148 94.9861 450.234 99.822 453.438 98.4571C456.641 97.0935 459.002 96.3484 462.825 98.905C466.647 101.462 462.764 105.153 466.306 106.86C469.848 108.568 467.2 113.854 471.266 116.832C474.33 119.076 471.432 128.207 465.312 126.993C459.192 125.777 428.884 127.911 428.884 127.911Z" fill="#AE613A"/>
<path d="M430.437 129.327C430.437 129.327 426.956 124.965 424.548 128.706C422.14 132.446 425.958 143.216 432.018 140.41L430.437 129.327Z" fill="#FD857D"/>
<path d="M430.593 137.088C430.367 137.093 430.156 136.95 430.084 136.725C429.048 133.397 425.507 132.125 425.472 132.113C425.203 132.019 425.061 131.727 425.156 131.459C425.25 131.191 425.546 131.051 425.815 131.144C425.981 131.201 429.883 132.589 431.076 136.423C431.161 136.693 431.007 136.981 430.733 137.064C430.687 137.08 430.64 137.086 430.593 137.088Z" fill="#F05B56"/>
<path d="M427.011 135.488C426.914 135.491 426.818 135.467 426.729 135.413C426.484 135.265 426.407 134.951 426.555 134.708C426.579 134.668 427.175 133.715 428.459 133.107C428.716 132.985 429.027 133.093 429.149 133.348C429.273 133.604 429.164 133.91 428.906 134.032C427.914 134.503 427.445 135.235 427.441 135.241C427.345 135.397 427.181 135.484 427.011 135.488Z" fill="#F05B56"/>
<path d="M465.127 128.452C465.127 128.452 468.378 123.92 470.976 127.534C473.574 131.148 470.314 142.096 464.119 139.601L465.127 128.452Z" fill="#FD857D"/>
<path d="M465.369 136.212C465.595 136.206 465.799 136.053 465.857 135.825C466.721 132.449 470.192 131.001 470.227 130.986C470.492 130.878 470.619 130.579 470.51 130.317C470.402 130.055 470.099 129.929 469.836 130.036C469.673 130.101 465.848 131.685 464.853 135.573C464.784 135.848 464.952 136.126 465.229 136.197C465.276 136.208 465.323 136.213 465.369 136.212Z" fill="#F05B56"/>
<path d="M468.864 134.433C468.961 134.43 469.056 134.402 469.141 134.343C469.378 134.183 469.439 133.865 469.278 133.63C469.252 133.592 468.607 132.669 467.295 132.127C467.033 132.017 466.728 132.141 466.619 132.403C466.508 132.664 466.633 132.965 466.897 133.073C467.912 133.493 468.419 134.199 468.423 134.206C468.525 134.358 468.695 134.437 468.864 134.433Z" fill="#F05B56"/>
<path d="M456.59 149.007L456.867 159.806C456.867 159.806 453.758 165.389 449.371 165.874C444.989 166.364 440.954 161.347 440.954 161.347L440.666 150.168L456.59 149.007Z" fill="#FDA893"/>
<path d="M456.59 149.007L456.714 153.799C453.847 157.116 448.629 158.059 440.848 157.12L440.669 150.169L456.59 149.007Z" fill="#FD857D"/>
<path d="M467.369 120.981C467.275 125.183 467.006 130.441 466.307 134.658C466.132 135.71 465.928 136.701 465.698 137.59C463.609 145.605 458.222 159.397 442.013 154.118C434.854 151.788 431.364 144.042 429.694 136.117C428.561 130.734 428.271 125.274 428.243 121.368C428.218 117.379 430.32 113.682 433.769 111.628C443.115 106.063 453.17 107.796 459.822 110.139C464.438 111.762 467.478 116.137 467.369 120.981Z" fill="#FDA893"/>
<path d="M441.427 130.461C441.457 131.614 440.881 132.563 440.141 132.581C439.401 132.6 438.778 131.68 438.749 130.527C438.719 129.374 439.295 128.425 440.035 128.407C440.773 128.388 441.398 129.308 441.427 130.461Z" fill="#AE613A"/>
<path d="M457.518 130.053C457.548 131.206 456.972 132.155 456.232 132.174C455.492 132.193 454.869 131.273 454.84 130.12C454.81 128.967 455.386 128.018 456.126 127.999C456.864 127.981 457.489 128.9 457.518 130.053Z" fill="#AE613A"/>
<path d="M460.696 123.096C460.696 123.096 455.106 121.069 450.891 123L451.378 125.338C451.378 125.338 457.619 124.656 460.804 125.842C461.062 124.93 461.08 124.016 460.696 123.096Z" fill="#AE613A"/>
<path d="M434.379 123.77C434.379 123.77 439.899 121.447 444.239 123.176L443.871 125.552C443.871 125.552 437.555 125.183 434.414 126.537C434.106 125.635 434.041 124.715 434.379 123.77Z" fill="#AE613A"/>
<path d="M448.645 138.786C447.78 138.905 446.875 138.69 446.734 138.654C446.456 138.584 446.29 138.305 446.361 138.03C446.431 137.756 446.713 137.589 446.991 137.66C447.48 137.782 448.633 137.922 449.076 137.569C449.161 137.501 449.272 137.375 449.262 137.061C449.198 135.261 447.875 129.378 447.861 129.318C447.799 129.042 447.974 128.768 448.254 128.705C448.534 128.642 448.81 128.817 448.873 129.094C448.928 129.34 450.23 135.13 450.298 137.025C450.323 137.739 450 138.15 449.726 138.369C449.423 138.609 449.038 138.733 448.645 138.786Z" fill="#FD857D"/>
<path d="M441.221 141.826C441.699 143.925 443.206 147.771 447.944 147.651C452.695 147.531 453.935 143.95 454.331 141.495L441.221 141.826Z" fill="white"/>
<path d="M447.962 150.832C449.302 150.798 450.421 150.097 450.468 150.067C450.709 149.913 450.779 149.596 450.625 149.358C450.47 149.119 450.15 149.05 449.909 149.202C449.901 149.207 448.979 149.779 447.935 149.804C446.977 149.828 446.046 149.307 446.037 149.302C445.789 149.159 445.473 149.242 445.329 149.487C445.185 149.732 445.269 150.045 445.516 150.188C445.563 150.217 446.697 150.864 447.962 150.832Z" fill="#FD857D"/>
<path d="M467.369 120.981C467.275 125.183 467.006 130.441 466.307 134.658L463.987 134.554C463.987 134.554 464.457 130.997 464.656 128.682C464.855 126.366 465.184 122.039 463.182 121.552C461.186 121.068 462.223 116.116 459.407 114.051C456.593 111.981 450.412 110.254 446.407 112.839C442.4 115.42 437.736 114.167 435.872 114.646C434.004 115.119 431.521 117.749 432.272 120.127C433.027 122.501 430.994 124.01 430.555 126.499C430.117 128.989 431.894 135.619 431.894 135.619L429.694 136.117C428.561 130.734 428.271 125.274 428.243 121.368C428.218 117.379 430.32 113.682 433.769 111.628C443.115 106.063 453.17 107.796 459.822 110.139C464.438 111.762 467.478 116.137 467.369 120.981Z" fill="#AE613A"/>
<path d="M411.806 309.326L406.276 316.804C406.276 316.804 403.074 314.818 398.729 311.366C398.715 311.352 398.715 311.352 398.702 311.339C392.082 306.101 384.045 296.373 379.018 286.366C371.171 270.741 374.727 259.533 374.727 259.533C375.507 252.015 379.758 241.599 383.808 230.256C385.288 226.137 386.633 222.551 387.575 220.032L399.939 222.845L405.227 226.07L403.195 231.389C399.697 242.87 395.742 254.16 390.448 264.894C391.645 275.411 396.132 288.106 401.312 295.89C406.666 303.968 411.806 309.326 411.806 309.326Z" fill="#FDA893"/>
<path d="M411.806 309.326L406.276 316.804C406.276 316.804 403.074 314.817 398.729 311.365C398.715 311.352 398.715 311.352 398.702 311.338C397.746 305.687 398.325 297.702 401.312 295.89C406.666 303.967 411.806 309.326 411.806 309.326Z" fill="#FD857D"/>
<path d="M408.853 300.697C409.965 300.769 415.899 301.061 415.257 299.05C414.549 296.832 408.726 294.234 408.726 294.234C408.726 294.234 408.693 294.12 408.749 293.971L408.686 293.496L408.429 288.729C407.304 288.737 406.271 288.954 405.711 289.126C403.159 289.908 403.509 295.692 403.509 295.692C403.509 295.692 400.291 296.832 400.408 299.166C400.526 301.501 403.119 301.851 403.119 301.851C403.119 301.851 399.578 303.603 400.405 305.588C401.232 307.572 403.916 308.156 403.916 308.156C403.916 308.156 400.879 310.141 401.94 311.542C403 312.943 405.476 313.644 405.476 313.644C405.476 313.644 403.357 316.486 405.511 318.035C407.663 319.584 410.83 319.248 412.867 318.547C414.904 317.845 414.55 315.277 410.544 313.409C410.544 313.409 414.08 313.76 415.846 310.841C417.321 308.407 413.56 307.355 410.353 306.937C412.873 307.105 417.221 307.034 417.968 304.652C418.946 301.53 410.216 300.793 408.853 300.697Z" fill="#FDA893"/>
<path d="M405.227 226.07L403.195 231.389C399.092 231.642 391.746 231.762 383.808 230.256C385.288 226.137 386.633 222.551 387.575 220.032L399.939 222.845L405.227 226.07Z" fill="#FD857D"/>
<path d="M410.528 179.818C410.528 179.818 391.878 197.786 380.89 223.876C389.502 226.635 397.655 228.588 405.224 229.521C406.119 227.099 410.828 217.073 414.996 209.995L410.528 179.818Z" fill="#DFC0B0"/>
<path d="M259.703 38.5935L259.723 38.5362C260.036 37.8524 260.321 37.1593 260.576 36.4675C264.334 26.3078 264.704 5.45382 241.336 0.520584C241.336 0.520584 222.076 -3.93679 213.51 13.2342C213.51 13.2342 209.653 21.1892 206.913 26.9676C206.913 26.9676 204.613 39.1094 193.05 40.1811C181.486 41.2528 175.037 45.6515 176.149 54.137C177.26 62.6226 175.481 61.2723 167.476 68.4475C159.471 75.6228 153.886 89.0416 160.792 97.8737C167.698 106.706 193.537 85.8092 210.082 95.1465C226.628 104.484 254.412 101.754 257.642 88.4671C260.872 75.1816 247.931 66.4255 248.62 59.6768C249.31 52.9294 257.606 45.0503 259.703 38.5935Z" fill="#6C2D0D"/>
<path d="M265.986 123.769L249.478 123.783L241.5 108.414L240.599 106.654L237.195 100.11C237.195 100.11 237.878 72.251 245.089 68.4521L265.986 123.769Z" fill="#DFC0B0"/>
<path d="M241.5 108.415L240.599 106.655C242.186 103.469 244.931 96.1382 242.751 86.701C242.657 86.2611 242.926 85.8346 243.357 85.7413C243.787 85.648 244.231 85.9145 244.325 86.3411C246.908 97.5378 243.034 105.762 241.5 108.415Z" fill="#AE613A"/>
<path d="M270.039 121.837C270.039 121.837 271.461 127.911 273.884 129.584C276.307 131.257 275.695 122.763 275.695 122.763C275.695 122.763 276.51 133.014 279.018 133.288C281.526 133.563 281.021 123.583 281.021 123.583C281.021 123.583 282.641 130.445 284.541 130.845C286.442 131.246 286.374 123.936 286.374 123.936C286.374 123.936 288.215 129.245 289.621 129.707C291.028 130.168 291.709 124 290.919 120.859C290.128 117.717 286.181 119.624 286.181 119.624C286.181 119.624 282.45 118.557 281.156 119.83C281.156 119.83 277.811 118.39 275.938 119.322C275.938 119.324 270.476 117.762 270.039 121.837Z" fill="#FDA893"/>
<path d="M242.251 81.7821C242.883 87.1538 244.605 92.5789 242.305 101.123C241.578 103.829 240.448 105.988 238.322 109.694V109.707C238.309 109.707 238.309 109.707 238.309 109.707C238.215 109.921 238.093 110.121 237.959 110.334C237.919 110.72 237.865 111.094 237.824 111.467C236.439 120.984 236.802 115.932 236.963 123.783H187.237L187.601 104.282L187.681 100.123L188.394 61.8412L204.095 60.4682H204.109L206.813 60.2283L206.974 60.2017L211.199 59.8418C211.576 59.8018 211.939 59.7751 212.316 59.7485C218.007 59.4019 223.711 60.2816 229.052 62.321L229.227 62.3877L231.582 63.2808V63.2941L231.73 63.3474L234.03 64.2272L245.089 68.4526C244.524 70.9185 242.762 79.3028 242.251 81.7821Z" fill="#DFC0B0"/>
<path d="M193.87 90.1129L187.601 104.282L187.681 100.123L192.39 89.4731C192.565 89.0732 193.05 88.8866 193.453 89.0599C193.857 89.2332 194.045 89.713 193.87 90.1129Z" fill="#AE613A"/>
<path d="M204.102 60.4604C209.231 70.7001 221.787 82.1422 228.221 78.6112C232.179 76.4438 233.796 69.3232 234.029 64.2207L231.723 63.3436L231.583 63.2916V63.2876L229.23 62.3892L229.05 62.3199C223.715 60.2832 218.009 59.4061 212.316 59.754C212.122 59.7806 211.925 59.806 211.732 59.8326C211.553 59.854 211.377 59.8766 211.202 59.8979L206.972 60.2112L206.809 60.2245L204.102 60.4604Z" fill="#FDA893"/>
<path d="M237.966 110.341C237.918 110.719 237.866 111.095 237.826 111.47C235.101 112.045 226.55 113.236 212.013 109.787C210.128 109.339 208.141 108.814 206.054 108.197C205.625 108.073 205.384 107.627 205.509 107.201C205.638 106.783 206.09 106.539 206.513 106.667C227.484 112.838 238.189 109.741 238.297 109.711C238.309 109.709 238.315 109.705 238.326 109.702C238.208 109.909 238.091 110.122 237.966 110.341Z" fill="#AE613A"/>
<path d="M251.706 37.0917C251.706 37.0917 256.333 34.2205 257.51 38.3646C258.687 42.5101 251.817 51.0903 246.876 46.6529L251.706 37.0917Z" fill="#FD857D"/>
<path d="M249.718 46.8919C249.509 47.4718 249.813 48.1089 250.398 48.3169C250.984 48.5235 251.627 48.2222 251.837 47.6424C252.045 47.0625 251.741 46.4241 251.156 46.2175C250.571 46.0109 249.926 46.3121 249.718 46.8919Z" fill="white"/>
<path d="M249.232 44.0842C249.446 44.1601 249.691 44.0962 249.825 43.9135C251.811 41.217 255.57 41.169 255.608 41.169C255.893 41.1677 256.116 40.9464 256.106 40.6745C256.096 40.4026 255.857 40.1826 255.571 40.1826C255.397 40.1826 251.258 40.2253 248.971 43.331C248.81 43.551 248.87 43.8589 249.105 44.0202C249.145 44.0468 249.188 44.0682 249.232 44.0842Z" fill="#F05B56"/>
<path d="M253.128 43.7507C253.22 43.7826 253.319 43.792 253.42 43.7707C253.697 43.7133 253.866 43.4507 253.797 43.1842C253.786 43.1402 253.502 42.0885 252.461 41.1381C252.252 40.9461 251.924 40.9475 251.729 41.1421C251.534 41.3354 251.547 41.6473 251.756 41.8392C252.561 42.575 252.789 43.3854 252.792 43.3934C252.836 43.5627 252.967 43.6933 253.128 43.7507Z" fill="#F05B56"/>
<path d="M219.785 48.8281L215.467 60.8086C215.467 60.8086 219.538 67.0935 223.788 69.0196C228.031 70.9484 231.392 66.363 231.392 66.363L235.412 55.2129L219.785 48.8281Z" fill="#FDA893"/>
<path d="M219.362 50.001L217.638 54.7796C219.414 59.0557 224.224 62.0495 232.363 63.6557L234.987 56.3844L219.362 50.001Z" fill="#FD857D"/>
<path d="M251.979 42.3228C251.422 43.4305 250.833 44.5488 250.201 45.6472C246.003 52.945 237.995 59.6004 231.206 58.79C216.546 57.0399 214.72 44.4942 215.358 35.942C215.43 34.9916 216.236 34.1612 216.415 33.0695C216.84 30.4849 216.844 27.3778 217.6 24.5813C218.125 22.6432 218.685 20.7464 219.21 19.0389C220.696 14.2269 225.032 10.8559 229.971 10.6866C237.091 10.436 247.258 11.841 254.347 20.2252C256.965 23.3216 257.759 27.6204 256.427 31.5459C255.409 34.5437 253.929 38.4133 251.979 42.3228Z" fill="#FDA893"/>
<path d="M233.257 42.4927C233.004 42.4034 232.846 42.1435 232.895 41.8742C232.95 41.5729 233.239 41.3717 233.543 41.4263L235.461 41.7649L235.339 34.3071C235.334 34.0018 235.58 33.7485 235.89 33.7432C236.198 33.7392 236.453 33.9818 236.457 34.2884L236.6 43.0912L233.346 42.5153C233.316 42.5113 233.285 42.5033 233.257 42.4927Z" fill="#FD857D"/>
<path d="M251.488 27.3504C255.925 31.6225 251.993 37.2649 252.655 41.0291C252.696 41.273 252.805 41.353 252.97 41.293C254.974 37.3142 256.485 33.3713 257.521 30.3149C258.876 26.3107 257.993 21.9053 255.21 18.7076C247.673 10.0514 236.978 8.50254 229.503 8.68115C224.318 8.79979 219.802 12.2015 218.293 17.1094C217.761 18.8502 217.194 20.7856 216.664 22.7624C217.357 23.5928 219.421 24.5899 219.005 26.0228C217.907 29.8124 217.175 32.4129 218.036 32.4689C219.488 32.5596 221.925 28.3608 221.464 24.9258C221.464 24.9258 223.38 23.4009 228.999 23.2623C236.206 23.085 243.595 21.6627 243.595 21.6627C243.595 21.6627 246.517 21.0789 248.005 19.8406C248.008 19.8419 248.109 24.0967 251.488 27.3504Z" fill="#6C2D0D"/>
<path d="M242.903 36.3627C242.489 37.513 242.751 38.6567 243.489 38.9179C244.226 39.1792 245.161 38.4581 245.575 37.3091C245.99 36.1601 245.727 35.0164 244.99 34.7551C244.251 34.4926 243.318 35.2137 242.903 36.3627Z" fill="#6C2D0D"/>
<path d="M227.682 30.9674C227.267 32.1177 227.529 33.2614 228.267 33.5226C229.004 33.7839 229.939 33.0628 230.353 31.9138C230.768 30.7635 230.505 29.6198 229.768 29.3599C229.031 29.0999 228.096 29.8171 227.682 30.9674Z" fill="#6C2D0D"/>
<path d="M249.465 31.7553C248.465 31.1675 246.417 30.0571 244.075 29.3187C243.459 29.1241 242.808 29.4067 242.718 29.9158L242.715 29.9292C242.644 30.3357 242.965 30.7409 243.464 30.8769C245.084 31.3168 249.198 32.8017 250.914 34.0466C251.066 33.7907 250.986 33.4322 250.808 33.0803C250.538 32.5471 250.049 32.0979 249.465 31.7553Z" fill="#6C2D0D"/>
<path d="M227.899 24.4053C229.051 24.5626 231.352 24.9572 233.648 25.8263C234.252 26.0542 234.585 26.6767 234.334 27.1312L234.328 27.1419C234.127 27.5044 233.621 27.6217 233.145 27.4205C231.602 26.766 227.45 25.3877 225.324 25.3037C225.366 25.0091 225.654 24.7786 226.016 24.6133C226.562 24.3627 227.227 24.3134 227.899 24.4053Z" fill="#6C2D0D"/>
<path d="M237.976 47.6678C236.927 49.3593 234.415 52.2665 230.044 50.7189C225.662 49.1687 225.542 45.6564 225.884 43.3877L237.976 47.6678Z" fill="white"/>
<path d="M228.972 53.8854C230.234 54.3319 231.59 54.0533 231.648 54.0413C231.944 53.9787 232.132 53.6894 232.069 53.3962C232.006 53.1029 231.715 52.9163 231.419 52.9776C231.408 52.9803 230.302 53.2029 229.34 52.8617C228.299 52.4938 227.563 51.6167 227.556 51.6074C227.364 51.3754 227.02 51.3408 226.784 51.5314C226.55 51.7207 226.515 52.0619 226.706 52.2938C226.744 52.3405 227.636 53.4122 228.972 53.8854Z" fill="#FD857D"/>
<path d="M219.053 25.499C219.053 25.499 216.955 19.7353 213.611 22.172C210.268 24.6086 209.94 35.1855 216.124 34.7656L219.053 25.499Z" fill="#FDA893"/>
<path d="M212.684 33.786C212.476 34.3659 212.78 35.003 213.365 35.2109C213.95 35.4175 214.595 35.1163 214.803 34.5365C215.012 33.9566 214.708 33.3181 214.123 33.1115C213.536 32.9036 212.893 33.2062 212.684 33.786Z" fill="white"/>
<path d="M216.013 31.4213C215.815 31.352 215.681 31.1574 215.695 30.9401C215.921 27.7184 213.288 25.4484 213.261 25.4257C213.061 25.2551 213.037 24.9552 213.208 24.7552C213.38 24.5553 213.683 24.5313 213.884 24.7006C214.008 24.8046 216.914 27.2958 216.655 31.0054C216.636 31.268 216.407 31.4653 216.142 31.4466C216.096 31.444 216.053 31.4346 216.013 31.4213Z" fill="#FD857D"/>
<path d="M213.454 28.8526C213.371 28.8233 213.294 28.77 213.235 28.6953C213.073 28.4874 213.112 28.1888 213.322 28.0275C213.357 28.0009 214.194 27.3744 215.508 27.2731C215.772 27.2517 216.003 27.449 216.024 27.7103C216.044 27.9715 215.846 28.2008 215.582 28.2221C214.567 28.3008 213.914 28.778 213.907 28.7833C213.774 28.8833 213.603 28.9046 213.454 28.8526Z" fill="#FD857D"/>
<path d="M235.338 31.8682C235.451 31.5576 235.49 31.2351 235.463 30.9231C235.396 30.0674 234.846 29.2876 233.983 28.961L226.37 26.0765C225.771 25.8499 225.139 25.8859 224.596 26.1259C224.299 26.2578 224.033 26.4498 223.813 26.6964C223.629 26.899 223.48 27.1349 223.376 27.4015L223.003 28.3652C222.372 29.9994 222.417 31.8042 223.125 33.3238C223.832 34.8327 224.899 35.883 226.301 36.4482L226.502 36.5242C228.131 37.1413 229.904 37.096 231.504 36.3936C233.128 35.6818 234.369 34.3848 235.003 32.7413L235.318 31.9255C235.326 31.9082 235.334 31.8869 235.338 31.8682ZM234.107 32.4014C233.565 33.8076 232.502 34.914 231.118 35.5218C229.749 36.1216 228.236 36.1603 226.846 35.6338L226.663 35.5645C225.497 35.0926 224.6 34.2049 224 32.9239C223.399 31.6389 223.364 30.0994 223.902 28.7051L224.275 27.7414C224.543 27.0469 225.326 26.7017 226.025 26.967L233.639 29.8515C234.336 30.1154 234.69 30.8925 234.421 31.5856L234.107 32.4014Z" fill="white"/>
<path d="M251.601 37.4355C251.636 37.1116 251.594 36.7864 251.492 36.4824C251.276 35.86 250.794 35.3308 250.127 35.0775L242.51 32.1917C241.628 31.8571 240.664 32.0944 240.036 32.7235C239.825 32.9328 239.651 33.1861 239.537 33.4753C239.528 33.4887 239.524 33.5007 239.518 33.5153L239.146 34.479C238.515 36.1132 238.562 37.9194 239.269 39.4389C239.974 40.9465 241.044 41.9982 242.443 42.562L242.646 42.6393C244.276 43.2565 246.049 43.2112 247.648 42.5087C249.268 41.7969 250.514 40.5 251.148 38.8564L251.463 38.0407C251.539 37.8447 251.586 37.6408 251.601 37.4355ZM250.249 38.5192C249.707 39.9254 248.644 41.0318 247.257 41.6383C245.893 42.2395 244.378 42.2781 242.989 41.7516L242.804 41.6809C241.637 41.2077 240.741 40.3213 240.141 39.0404C239.542 37.7554 239.505 36.2159 240.043 34.8216L240.416 33.8579C240.683 33.1634 241.469 32.8182 242.166 33.0834L249.782 35.9693C250.479 36.2332 250.832 37.0103 250.564 37.7034L250.249 38.5192Z" fill="white"/>
<path d="M224.596 26.1259C223.975 25.4554 222.281 23.8985 219.402 23.0508V24.0558C221.778 24.8236 223.234 26.1032 223.813 26.6964C224.006 26.891 224.103 27.0136 224.108 27.019L224.87 26.4405C224.852 26.4165 224.762 26.3005 224.596 26.1259Z" fill="white"/>
<path d="M235.004 31.8443L235.034 30.8926C235.095 30.8939 236.521 30.9419 237.905 31.4671C239.38 32.0256 240.156 32.8347 240.188 32.868L239.487 33.5198C239.482 33.5145 238.817 32.832 237.562 32.3562C236.334 31.891 235.018 31.8443 235.004 31.8443Z" fill="white"/>
<path d="M254.592 36.7171C252.803 36.3599 251.181 36.4985 251.077 36.5078L251.164 37.4555C251.191 37.4542 252.855 37.3142 254.592 37.6941V36.7171Z" fill="white"/>
<path d="M227.823 123.835C227.823 123.835 228.132 129.909 226.185 131.584C224.239 133.257 222.432 124.763 222.432 124.763C222.432 124.763 224.537 135.013 222.107 135.288C219.678 135.562 217.338 125.583 217.338 125.583C217.338 125.583 217.674 132.445 215.888 132.845C214.101 133.246 212.084 125.936 212.084 125.936C212.084 125.936 211.757 131.245 210.482 131.706C209.206 132.167 206.767 126 206.662 122.86C206.557 119.718 211.048 121.625 211.048 121.625C211.048 121.625 214.475 120.559 216.131 121.83C216.131 121.83 219.066 120.391 221.205 121.323C221.207 121.323 226.224 119.76 227.823 123.835Z" fill="#FDA893"/>
<path d="M200.436 123.771L165.119 123.785C165.092 123.771 165.012 123.478 165.012 123.465C164.393 114.174 170.326 98.5255 174.47 84.8494C177.214 75.7987 180.82 64.9086 188.395 61.8428C189.726 63.4023 192.189 69.8271 192.363 73.1062C192.767 81.0239 191.758 89.3948 190.278 93.7935C188.139 100.112 185.462 107.803 183.511 114.121C183.511 114.121 183.511 114.134 183.497 114.174C183.457 114.348 183.322 114.974 183.322 114.987C183.376 115.001 183.726 115.187 184.345 115.534C186.646 116.8 192.659 120.146 200.436 123.771Z" fill="#DFC0B0"/>
<path d="M184.345 115.533C180.645 117.24 175.411 120.839 175.358 120.879C175.21 120.985 175.048 121.025 174.9 121.025C174.645 121.025 174.389 120.905 174.227 120.679C173.972 120.319 174.066 119.826 174.429 119.572C174.658 119.412 179.703 115.947 183.497 114.174C183.457 114.347 183.322 114.974 183.322 114.987C183.376 115 183.726 115.187 184.345 115.533Z" fill="#AE613A"/>
<path d="M211.2 59.8369C211.2 59.8369 213.89 71.9654 223.523 72.6319C233.156 73.2983 234.029 63.6571 234.029 63.6571" stroke="white" stroke-width="1.2" stroke-miterlimit="10" stroke-linecap="round"/>
<path d="M551.185 457.208C551.185 457.208 550.087 458.271 547.837 458.435C547.158 458.49 546.378 458.459 545.477 458.279C544.522 458.107 543.441 457.77 542.24 457.208C542.24 457.208 542.761 435.293 533.817 420.197C524.873 405.101 513.031 384.25 522.504 373.557C531.976 362.866 547.237 377.727 552.234 402.754C557.24 427.784 551.185 457.208 551.185 457.208Z" fill="#AE613A"/>
<path d="M547.837 458.435C547.158 458.489 546.378 458.459 545.477 458.279C548.351 419.375 530.525 389.325 530.344 389.02C530.005 388.464 530.187 387.746 530.747 387.409C531.308 387.079 532.034 387.259 532.373 387.815C532.562 388.12 550.766 418.765 547.837 458.435Z" fill="#AE613A"/>
<path d="M581.862 421.838C560.935 455.361 562.38 463.112 562.38 463.112L559.632 462.626L557.295 462.22L553.963 461.633C552.108 446.764 563.634 383.92 584.183 383.92C605.104 383.92 588.992 410.427 581.862 421.838Z" fill="#AE613A"/>
<path d="M581.073 402.552C580.875 402.881 563.35 433.853 559.631 462.628L557.294 462.221C561.115 432.984 578.815 401.731 579.003 401.395C579.326 400.832 580.054 400.636 580.622 400.956C581.191 401.278 581.389 401.989 581.073 402.552Z" fill="#AE613A"/>
<path d="M542.051 460.18L539.643 460.821L537.338 461.439L535.956 461.807C536.042 461.51 534.993 458.944 520.27 439.454C514.192 431.397 497.976 409.733 512.842 406.095C526.475 402.763 542.445 448.955 542.051 460.18Z" fill="#AE613A"/>
<path d="M539.643 460.82L537.338 461.439C533.09 442.659 515.857 419.609 515.668 419.359C515.28 418.843 515.39 418.107 515.912 417.717C516.434 417.333 517.176 417.435 517.57 417.959C518.329 418.975 535.27 441.611 539.643 460.82Z" fill="#AE613A"/>
<path d="M571.208 509.77C571.208 513.522 524.401 513.522 524.401 509.77V454.629C524.401 454.058 524.867 453.596 525.443 453.596H570.164C570.74 453.596 571.207 454.058 571.207 454.629L571.208 509.77Z" fill="#6C2D0D"/>
<path d="M85.5026 511.147H51.8596C47.2839 511.147 43.2289 507.679 41.8149 502.556L27.547 450.863C26.9631 448.748 28.2156 446.55 30.0992 446.378C56.0761 444.008 81.8001 444.005 107.267 446.371C109.148 446.546 110.398 448.743 109.815 450.855L95.546 502.555C94.1333 507.679 90.0783 511.147 85.5026 511.147Z" fill="#6C2D0D"/>
<path d="M106.829 450.133C106.829 451.508 89.8523 452.622 68.9112 452.622C47.9701 452.622 30.9939 451.508 30.9939 450.133C30.9939 448.757 47.9701 447.643 68.9112 447.643C89.8523 447.643 106.829 448.758 106.829 450.133Z" fill="#AE613A"/>
<path d="M111.854 380.269C98.2086 376.707 77.3603 404.767 71.0289 432.125V392.266C74.2121 386.674 80.2798 378.26 91.2973 369.371C108.431 355.546 124.203 337.804 110.534 334.237C97.7242 330.894 78.5658 355.422 71.0289 381.073V329.886C73.2367 326.491 76.8531 322.037 82.6343 317.371C93.4324 308.658 103.372 297.477 94.7576 295.228C87.2813 293.277 76.3741 306.389 71.0289 321.177V304.587C71.9128 299.455 73.1613 292.125 76.588 284.631C84.5299 267.268 88.8204 249.379 78.3492 250.711C67.8685 252.042 61.0729 282.967 66.8043 306.706V315.244C62.9323 297.87 49.6505 279.878 40.9808 282.14C32.3662 284.389 42.306 295.57 53.1041 304.283C61.3232 310.916 65.1697 317.123 66.8043 320.462V360.785C60.5953 333.291 39.5991 304.912 25.8814 308.493C12.2122 312.06 27.9842 329.802 45.1179 343.626C58.0646 354.074 64.1795 363.863 66.8043 369.188V417.542C60.1675 390.55 39.708 363.31 26.2527 366.822C12.5835 370.389 24.3059 383.356 43.5612 399.038C56.6466 409.697 63.6561 420.944 66.8043 427.058V449.834C68.3314 450.258 69.7615 450.255 71.0289 449.834V440.771C73.7076 435.404 79.8278 425.727 92.6184 415.407C109.751 401.579 125.523 383.836 111.854 380.269Z" fill="#AE613A"/>
</svg>
