<svg width="310" height="83" viewBox="0 0 310 83" fill="none" xmlns="http://www.w3.org/2000/svg">
<path d="M91.611 48.92C92.301 49.8 92.641 50.81 92.641 51.94C92.641 53.57 92.071 54.87 90.931 55.83C89.791 56.79 88.191 57.2599 86.151 57.2599H77.041V37.7H85.841C87.831 37.7 89.381 38.1599 90.511 39.0699C91.641 39.9799 92.201 41.22 92.201 42.78C92.201 43.93 91.901 44.8899 91.291 45.6499C90.681 46.4099 89.881 46.9399 88.881 47.2399C90.011 47.4799 90.921 48.0399 91.611 48.9299V48.92ZM81.811 45.61H84.931C85.711 45.61 86.311 45.44 86.731 45.09C87.151 44.74 87.361 44.2399 87.361 43.5699C87.361 42.8999 87.151 42.3899 86.731 42.0399C86.311 41.6899 85.711 41.5099 84.931 41.5099H81.811V45.61ZM87.171 52.8699C87.611 52.5099 87.821 51.98 87.821 51.3C87.821 50.62 87.591 50.0699 87.141 49.6799C86.681 49.2899 86.061 49.09 85.261 49.09H81.801V53.4099H85.311C86.111 53.4099 86.731 53.2299 87.161 52.8699H87.171Z" fill="white"/>
<path d="M105.38 57.2599L101.31 49.8799H100.17V57.2599H95.4102V37.7H103.41C104.95 37.7 106.27 37.9699 107.35 38.5099C108.44 39.0499 109.25 39.79 109.79 40.72C110.33 41.66 110.6 42.6999 110.6 43.8499C110.6 45.1499 110.23 46.31 109.5 47.33C108.77 48.35 107.68 49.08 106.25 49.5L110.76 57.25H105.38V57.2599ZM100.17 46.5099H103.12C103.99 46.5099 104.65 46.2999 105.08 45.8699C105.52 45.4399 105.73 44.84 105.73 44.06C105.73 43.28 105.51 42.73 105.08 42.31C104.64 41.88 103.99 41.67 103.12 41.67H100.17V46.5199V46.5099Z" fill="white"/>
<path d="M118.33 37.7V57.2599H113.57V37.7H118.33Z" fill="white"/>
<path d="M125.02 56.7599C123.89 56.2999 122.98 55.6099 122.3 54.6999C121.62 53.7899 121.26 52.6899 121.23 51.4099H126.3C126.37 52.1299 126.62 52.6899 127.05 53.0699C127.48 53.4499 128.03 53.6399 128.72 53.6399C129.41 53.6399 129.98 53.4799 130.39 53.1499C130.8 52.8199 131 52.3699 131 51.7999C131 51.3199 130.84 50.9199 130.51 50.5999C130.18 50.2799 129.79 50.0199 129.31 49.8199C128.84 49.6199 128.16 49.3799 127.29 49.1199C126.03 48.7299 125 48.3399 124.2 47.9499C123.4 47.5599 122.71 46.9799 122.14 46.2199C121.56 45.4599 121.28 44.4599 121.28 43.2399C121.28 41.4199 121.94 39.9899 123.26 38.9599C124.58 37.9299 126.3 37.4099 128.41 37.4099C130.52 37.4099 132.3 37.9299 133.62 38.9599C134.94 39.9899 135.64 41.4299 135.74 43.2599H130.59C130.55 42.6299 130.32 42.1299 129.89 41.7699C129.46 41.4099 128.91 41.2299 128.25 41.2299C127.67 41.2299 127.21 41.3799 126.86 41.6899C126.51 41.9999 126.33 42.4399 126.33 43.0099C126.33 43.6399 126.63 44.1299 127.22 44.4899C127.81 44.8399 128.74 45.2199 130.01 45.6299C131.27 46.0599 132.3 46.4599 133.09 46.8599C133.88 47.2499 134.56 47.8199 135.14 48.5599C135.72 49.2999 136 50.2599 136 51.4299C136 52.5999 135.72 53.5599 135.15 54.4699C134.58 55.3799 133.76 56.0999 132.68 56.6399C131.6 57.1799 130.33 57.4499 128.86 57.4499C127.39 57.4499 126.15 57.2199 125.01 56.7499H125.02V56.7599Z" fill="white"/>
<path d="M152.991 37.7V41.5199H147.811V57.2599H143.051V41.5199H137.871V37.7H153.001H152.991Z" fill="white"/>
<path d="M159.58 56.1699C158.05 55.3199 156.83 54.1199 155.93 52.5899C155.03 51.0599 154.58 49.3399 154.58 47.4199C154.58 45.4999 155.03 43.7899 155.93 42.2599C156.83 40.7399 158.05 39.5499 159.58 38.6899C161.11 37.8399 162.8 37.4099 164.64 37.4099C166.48 37.4099 168.16 37.8399 169.7 38.6899C171.23 39.5399 172.44 40.7299 173.32 42.2599C174.2 43.7799 174.64 45.4999 174.64 47.4199C174.64 49.3399 174.19 51.0599 173.3 52.5899C172.41 54.1199 171.2 55.3199 169.68 56.1699C168.16 57.0199 166.48 57.4499 164.64 57.4499C162.8 57.4499 161.12 57.0199 159.58 56.1699ZM168.39 51.5499C169.33 50.5099 169.8 49.1399 169.8 47.4299C169.8 45.7199 169.33 44.3199 168.39 43.2899C167.45 42.2599 166.2 41.7399 164.64 41.7399C163.08 41.7399 161.8 42.2499 160.86 43.2699C159.92 44.2899 159.45 45.6799 159.45 47.4199C159.45 49.1599 159.92 50.5299 160.86 51.5599C161.8 52.5899 163.06 53.1099 164.64 53.1099C166.22 53.1099 167.45 52.5899 168.39 51.5499Z" fill="white"/>
<path d="M182.051 53.58H188.291V57.2599H177.281V37.7H182.041V53.58H182.051Z" fill="white"/>
<path d="M200.002 37.8999V50.2399C200.002 51.7099 200.382 52.8099 201.162 53.5599C201.932 54.2999 203.002 54.6799 204.382 54.6799C205.762 54.6799 206.852 54.3099 207.632 53.5599C208.402 52.8199 208.792 51.7099 208.792 50.2399V37.8999H211.972V50.1899C211.972 51.7699 211.632 53.1099 210.942 54.1999C210.252 55.2899 209.332 56.1099 208.182 56.6499C207.032 57.1899 205.762 57.4599 204.362 57.4599C202.962 57.4599 201.702 57.1899 200.562 56.6499C199.422 56.1099 198.512 55.2899 197.842 54.1999C197.172 53.0999 196.842 51.7699 196.842 50.1899V37.8999H200.022H200.002Z" fill="white"/>
<path d="M228.58 37.8999V40.4899H223.43V57.2599H220.25V40.4899H215.07V37.8999H228.58Z" fill="white"/>
<path d="M234.961 37.8999V57.2599H231.781V37.8999H234.961Z" fill="white"/>
<path d="M242.32 54.6999H248.87V57.2599H239.15V37.8999H242.33V54.6999H242.32Z" fill="white"/>
<path d="M254.692 37.8999V57.2599H251.512V37.8999H254.692Z" fill="white"/>
<path d="M271.381 37.8999V40.4899H266.231V57.2599H263.051V40.4899H257.871V37.8999H271.381Z" fill="white"/>
<path d="M277.76 37.8999V57.2599H274.58V37.8999H277.76Z" fill="white"/>
<path d="M285.112 40.4599V46.1399H291.802V48.7299H285.112V54.6699H292.632V57.2599H281.932V37.8699H292.632V40.4599H285.112Z" fill="white"/>
<path d="M299.41 56.7699C298.37 56.3099 297.55 55.6699 296.96 54.8299C296.37 53.9899 296.07 53.0199 296.07 51.8999H299.47C299.54 52.7399 299.87 53.4199 300.46 53.9599C301.05 54.4999 301.87 54.7699 302.93 54.7699C303.99 54.7699 304.88 54.5099 305.49 53.9799C306.1 53.4499 306.41 52.7699 306.41 51.9299C306.41 51.2799 306.22 50.7499 305.84 50.3399C305.46 49.9299 304.99 49.6199 304.42 49.3899C303.85 49.1699 303.07 48.9299 302.07 48.6699C300.81 48.3399 299.78 47.9999 298.99 47.6499C298.2 47.3099 297.53 46.7699 296.97 46.0499C296.41 45.3299 296.13 44.3599 296.13 43.1499C296.13 42.0399 296.41 41.0599 296.97 40.2199C297.53 39.3899 298.31 38.7399 299.31 38.2999C300.31 37.8499 301.47 37.6299 302.79 37.6299C304.67 37.6299 306.2 38.0999 307.4 39.0399C308.6 39.9799 309.26 41.2599 309.39 42.8999H305.88C305.82 42.1899 305.49 41.5899 304.88 41.0899C304.27 40.5899 303.46 40.3399 302.46 40.3399C301.55 40.3399 300.81 40.5699 300.23 41.0399C299.65 41.4999 299.37 42.1699 299.37 43.0499C299.37 43.6399 299.55 44.1299 299.91 44.5099C300.27 44.8899 300.73 45.1899 301.29 45.4199C301.85 45.6399 302.61 45.8799 303.58 46.1399C304.86 46.4899 305.91 46.8499 306.71 47.1999C307.52 47.5499 308.21 48.0999 308.77 48.8299C309.34 49.5599 309.62 50.5399 309.62 51.7699C309.62 52.7599 309.36 53.6799 308.83 54.5599C308.3 55.4299 307.53 56.1299 306.52 56.6599C305.51 57.1899 304.31 57.4499 302.94 57.4499C301.57 57.4499 300.47 57.2199 299.43 56.7699H299.41Z" fill="white"/>
<path d="M91.611 48.92C92.301 49.8 92.641 50.81 92.641 51.94C92.641 53.57 92.071 54.87 90.931 55.83C89.791 56.79 88.191 57.2599 86.151 57.2599H77.041V37.7H85.841C87.831 37.7 89.381 38.1599 90.511 39.0699C91.641 39.9799 92.201 41.22 92.201 42.78C92.201 43.93 91.901 44.8899 91.291 45.6499C90.681 46.4099 89.881 46.9399 88.881 47.2399C90.011 47.4799 90.921 48.0399 91.611 48.9299V48.92ZM81.811 45.61H84.931C85.711 45.61 86.311 45.44 86.731 45.09C87.151 44.74 87.361 44.2399 87.361 43.5699C87.361 42.8999 87.151 42.3899 86.731 42.0399C86.311 41.6899 85.711 41.5099 84.931 41.5099H81.811V45.61ZM87.171 52.8699C87.611 52.5099 87.821 51.98 87.821 51.3C87.821 50.62 87.591 50.0699 87.141 49.6799C86.681 49.2899 86.061 49.09 85.261 49.09H81.801V53.4099H85.311C86.111 53.4099 86.731 53.2299 87.161 52.8699H87.171Z" fill="#AE613A"/>
<path d="M105.38 57.2599L101.31 49.8799H100.17V57.2599H95.4102V37.7H103.41C104.95 37.7 106.27 37.9699 107.35 38.5099C108.44 39.0499 109.25 39.79 109.79 40.72C110.33 41.66 110.6 42.6999 110.6 43.8499C110.6 45.1499 110.23 46.31 109.5 47.33C108.77 48.35 107.68 49.08 106.25 49.5L110.76 57.25H105.38V57.2599ZM100.17 46.5099H103.12C103.99 46.5099 104.65 46.2999 105.08 45.8699C105.52 45.4399 105.73 44.84 105.73 44.06C105.73 43.28 105.51 42.73 105.08 42.31C104.64 41.88 103.99 41.67 103.12 41.67H100.17V46.5199V46.5099Z" fill="#AE613A"/>
<path d="M118.33 37.7V57.2599H113.57V37.7H118.33Z" fill="#AE613A"/>
<path d="M125.02 56.7599C123.89 56.2999 122.98 55.6099 122.3 54.6999C121.62 53.7899 121.26 52.6899 121.23 51.4099H126.3C126.37 52.1299 126.62 52.6899 127.05 53.0699C127.48 53.4499 128.03 53.6399 128.72 53.6399C129.41 53.6399 129.98 53.4799 130.39 53.1499C130.8 52.8199 131 52.3699 131 51.7999C131 51.3199 130.84 50.9199 130.51 50.5999C130.18 50.2799 129.79 50.0199 129.31 49.8199C128.84 49.6199 128.16 49.3799 127.29 49.1199C126.03 48.7299 125 48.3399 124.2 47.9499C123.4 47.5599 122.71 46.9799 122.14 46.2199C121.56 45.4599 121.28 44.4599 121.28 43.2399C121.28 41.4199 121.94 39.9899 123.26 38.9599C124.58 37.9299 126.3 37.4099 128.41 37.4099C130.52 37.4099 132.3 37.9299 133.62 38.9599C134.94 39.9899 135.64 41.4299 135.74 43.2599H130.59C130.55 42.6299 130.32 42.1299 129.89 41.7699C129.46 41.4099 128.91 41.2299 128.25 41.2299C127.67 41.2299 127.21 41.3799 126.86 41.6899C126.51 41.9999 126.33 42.4399 126.33 43.0099C126.33 43.6399 126.63 44.1299 127.22 44.4899C127.81 44.8399 128.74 45.2199 130.01 45.6299C131.27 46.0599 132.3 46.4599 133.09 46.8599C133.88 47.2499 134.56 47.8199 135.14 48.5599C135.72 49.2999 136 50.2599 136 51.4299C136 52.5999 135.72 53.5599 135.15 54.4699C134.58 55.3799 133.76 56.0999 132.68 56.6399C131.6 57.1799 130.33 57.4499 128.86 57.4499C127.39 57.4499 126.15 57.2199 125.01 56.7499H125.02V56.7599Z" fill="#AE613A"/>
<path d="M152.991 37.7V41.5199H147.811V57.2599H143.051V41.5199H137.871V37.7H153.001H152.991Z" fill="#AE613A"/>
<path d="M159.58 56.1699C158.05 55.3199 156.83 54.1199 155.93 52.5899C155.03 51.0599 154.58 49.3399 154.58 47.4199C154.58 45.4999 155.03 43.7899 155.93 42.2599C156.83 40.7399 158.05 39.5499 159.58 38.6899C161.11 37.8399 162.8 37.4099 164.64 37.4099C166.48 37.4099 168.16 37.8399 169.7 38.6899C171.23 39.5399 172.44 40.7299 173.32 42.2599C174.2 43.7799 174.64 45.4999 174.64 47.4199C174.64 49.3399 174.19 51.0599 173.3 52.5899C172.41 54.1199 171.2 55.3199 169.68 56.1699C168.16 57.0199 166.48 57.4499 164.64 57.4499C162.8 57.4499 161.12 57.0199 159.58 56.1699ZM168.39 51.5499C169.33 50.5099 169.8 49.1399 169.8 47.4299C169.8 45.7199 169.33 44.3199 168.39 43.2899C167.45 42.2599 166.2 41.7399 164.64 41.7399C163.08 41.7399 161.8 42.2499 160.86 43.2699C159.92 44.2899 159.45 45.6799 159.45 47.4199C159.45 49.1599 159.92 50.5299 160.86 51.5599C161.8 52.5899 163.06 53.1099 164.64 53.1099C166.22 53.1099 167.45 52.5899 168.39 51.5499Z" fill="#AE613A"/>
<path d="M182.051 53.58H188.291V57.2599H177.281V37.7H182.041V53.58H182.051Z" fill="#AE613A"/>
<path d="M200.002 37.8999V50.2399C200.002 51.7099 200.382 52.8099 201.162 53.5599C201.932 54.2999 203.002 54.6799 204.382 54.6799C205.762 54.6799 206.852 54.3099 207.632 53.5599C208.402 52.8199 208.792 51.7099 208.792 50.2399V37.8999H211.972V50.1899C211.972 51.7699 211.632 53.1099 210.942 54.1999C210.252 55.2899 209.332 56.1099 208.182 56.6499C207.032 57.1899 205.762 57.4599 204.362 57.4599C202.962 57.4599 201.702 57.1899 200.562 56.6499C199.422 56.1099 198.512 55.2899 197.842 54.1999C197.172 53.0999 196.842 51.7699 196.842 50.1899V37.8999H200.022H200.002Z" fill="#AE613A"/>
<path d="M228.58 37.8999V40.4899H223.43V57.2599H220.25V40.4899H215.07V37.8999H228.58Z" fill="#AE613A"/>
<path d="M234.961 37.8999V57.2599H231.781V37.8999H234.961Z" fill="#AE613A"/>
<path d="M242.32 54.6999H248.87V57.2599H239.15V37.8999H242.33V54.6999H242.32Z" fill="#AE613A"/>
<path d="M254.692 37.8999V57.2599H251.512V37.8999H254.692Z" fill="#AE613A"/>
<path d="M271.381 37.8999V40.4899H266.231V57.2599H263.051V40.4899H257.871V37.8999H271.381Z" fill="#AE613A"/>
<path d="M277.76 37.8999V57.2599H274.58V37.8999H277.76Z" fill="#AE613A"/>
<path d="M285.112 40.4599V46.1399H291.802V48.7299H285.112V54.6699H292.632V57.2599H281.932V37.8699H292.632V40.4599H285.112Z" fill="#AE613A"/>
<path d="M299.41 56.7699C298.37 56.3099 297.55 55.6699 296.96 54.8299C296.37 53.9899 296.07 53.0199 296.07 51.8999H299.47C299.54 52.7399 299.87 53.4199 300.46 53.9599C301.05 54.4999 301.87 54.7699 302.93 54.7699C303.99 54.7699 304.88 54.5099 305.49 53.9799C306.1 53.4499 306.41 52.7699 306.41 51.9299C306.41 51.2799 306.22 50.7499 305.84 50.3399C305.46 49.9299 304.99 49.6199 304.42 49.3899C303.85 49.1699 303.07 48.9299 302.07 48.6699C300.81 48.3399 299.78 47.9999 298.99 47.6499C298.2 47.3099 297.53 46.7699 296.97 46.0499C296.41 45.3299 296.13 44.3599 296.13 43.1499C296.13 42.0399 296.41 41.0599 296.97 40.2199C297.53 39.3899 298.31 38.7399 299.31 38.2999C300.31 37.8499 301.47 37.6299 302.79 37.6299C304.67 37.6299 306.2 38.0999 307.4 39.0399C308.6 39.9799 309.26 41.2599 309.39 42.8999H305.88C305.82 42.1899 305.49 41.5899 304.88 41.0899C304.27 40.5899 303.46 40.3399 302.46 40.3399C301.55 40.3399 300.81 40.5699 300.23 41.0399C299.65 41.4999 299.37 42.1699 299.37 43.0499C299.37 43.6399 299.55 44.1299 299.91 44.5099C300.27 44.8899 300.73 45.1899 301.29 45.4199C301.85 45.6399 302.61 45.8799 303.58 46.1399C304.86 46.4899 305.91 46.8499 306.71 47.1999C307.52 47.5499 308.21 48.0999 308.77 48.8299C309.34 49.5599 309.62 50.5399 309.62 51.7699C309.62 52.7599 309.36 53.6799 308.83 54.5599C308.3 55.4299 307.53 56.1299 306.52 56.6599C305.51 57.1899 304.31 57.4499 302.94 57.4499C301.57 57.4499 300.47 57.2199 299.43 56.7699H299.41Z" fill="#AE613A"/>
<path d="M97.9902 71.11V64.01H100.54C101.14 64.01 101.65 64.1 102.07 64.29C102.5 64.48 102.82 64.75 103.05 65.11C103.28 65.47 103.4 65.9 103.4 66.4C103.4 66.9 103.28 67.32 103.05 67.68C102.82 68.04 102.49 68.31 102.07 68.5C101.64 68.69 101.13 68.78 100.54 68.78H98.2802L98.5102 68.54V71.11H97.9902ZM98.5102 68.58L98.2802 68.33H100.54C101.3 68.33 101.88 68.16 102.28 67.83C102.68 67.5 102.87 67.02 102.87 66.41C102.87 65.8 102.67 65.32 102.28 64.99C101.88 64.66 101.3 64.49 100.54 64.49H98.2802L98.5102 64.24V68.59V68.58Z" fill="white"/>
<path d="M110.79 71.16C110.26 71.16 109.77 71.07 109.32 70.89C108.87 70.71 108.48 70.46 108.14 70.13C107.81 69.8 107.55 69.42 107.36 68.98C107.18 68.54 107.09 68.07 107.09 67.56C107.09 67.05 107.18 66.57 107.36 66.14C107.54 65.71 107.8 65.32 108.14 64.99C108.47 64.66 108.87 64.41 109.32 64.23C109.77 64.05 110.26 63.96 110.79 63.96C111.32 63.96 111.81 64.05 112.26 64.23C112.71 64.41 113.1 64.66 113.43 64.98C113.76 65.31 114.02 65.69 114.21 66.12C114.4 66.56 114.49 67.03 114.49 67.55C114.49 68.07 114.4 68.55 114.21 68.99C114.02 69.43 113.77 69.81 113.43 70.13C113.1 70.45 112.71 70.71 112.26 70.89C111.81 71.07 111.32 71.16 110.79 71.16ZM110.79 70.69C111.24 70.69 111.66 70.61 112.05 70.46C112.44 70.3 112.77 70.08 113.05 69.8C113.33 69.52 113.56 69.18 113.71 68.81C113.87 68.43 113.95 68.02 113.95 67.57C113.95 67.12 113.87 66.7 113.71 66.33C113.55 65.96 113.33 65.62 113.05 65.34C112.77 65.06 112.43 64.84 112.05 64.68C111.66 64.52 111.25 64.45 110.79 64.45C110.33 64.45 109.92 64.53 109.53 64.68C109.14 64.84 108.81 65.06 108.52 65.34C108.23 65.62 108.01 65.95 107.85 66.33C107.69 66.71 107.61 67.12 107.61 67.57C107.61 68.02 107.69 68.43 107.85 68.81C108.01 69.19 108.23 69.52 108.52 69.8C108.81 70.08 109.14 70.3 109.53 70.46C109.92 70.62 110.33 70.69 110.79 70.69Z" fill="white"/>
<path d="M120.18 71.11L117.77 64.01H118.32L120.61 70.8H120.34L122.7 64.01H123.2L125.54 70.8H125.28L127.59 64.01H128.1L125.7 71.11H125.15L122.88 64.55H123.01L120.74 71.11H120.18Z" fill="white"/>
<path d="M132.641 70.65H137.021V71.12H132.121V64.02H136.871V64.49H132.641V70.66V70.65ZM132.581 67.28H136.421V67.74H132.581V67.28Z" fill="white"/>
<path d="M141.439 71.11V64.01H143.989C144.589 64.01 145.099 64.1 145.519 64.29C145.949 64.48 146.269 64.75 146.499 65.11C146.729 65.47 146.849 65.9 146.849 66.4C146.849 66.9 146.729 67.32 146.499 67.67C146.269 68.02 145.939 68.3 145.519 68.49C145.089 68.68 144.579 68.78 143.989 68.78H141.729L141.959 68.54V71.11H141.439ZM141.959 68.58L141.729 68.34H143.989C144.749 68.34 145.329 68.17 145.729 67.83C146.129 67.49 146.319 67.02 146.319 66.41C146.319 65.8 146.119 65.32 145.729 64.99C145.329 64.66 144.749 64.49 143.989 64.49H141.729L141.959 64.24V68.59V68.58ZM146.369 71.11L144.519 68.53H145.109L146.959 71.11H146.369Z" fill="white"/>
<path d="M151.279 71.11V64.01H151.799V71.11H151.279Z" fill="white"/>
<path d="M156.811 71.11V64.01H157.251L162.311 70.47H162.081V64.01H162.601V71.11H162.171L157.101 64.65H157.331V71.11H156.811Z" fill="white"/>
<path d="M170.63 71.16C170.1 71.16 169.6 71.07 169.15 70.89C168.7 70.71 168.3 70.46 167.97 70.13C167.64 69.81 167.38 69.42 167.19 68.99C167.01 68.55 166.92 68.07 166.92 67.55C166.92 67.03 167.01 66.55 167.19 66.12C167.37 65.68 167.63 65.3 167.97 64.98C168.31 64.66 168.7 64.4 169.15 64.23C169.6 64.05 170.09 63.96 170.64 63.96C171.19 63.96 171.63 64.04 172.07 64.2C172.51 64.36 172.88 64.61 173.2 64.93L172.88 65.28C172.57 64.98 172.23 64.76 171.86 64.63C171.49 64.5 171.09 64.44 170.66 64.44C170.2 64.44 169.77 64.52 169.38 64.67C168.99 64.83 168.65 65.05 168.36 65.33C168.07 65.61 167.84 65.95 167.69 66.32C167.53 66.7 167.45 67.11 167.45 67.56C167.45 68.01 167.53 68.42 167.69 68.8C167.85 69.18 168.07 69.51 168.36 69.79C168.65 70.07 168.99 70.29 169.38 70.45C169.77 70.61 170.2 70.68 170.66 70.68C171.08 70.68 171.48 70.62 171.85 70.49C172.23 70.36 172.57 70.15 172.88 69.85L173.17 70.25C172.85 70.55 172.47 70.78 172.03 70.93C171.59 71.08 171.12 71.16 170.64 71.16H170.63ZM172.67 70.2V67.59H173.17V70.25L172.67 70.2Z" fill="white"/>
<path d="M183.109 71.11V64.01H186.069C186.829 64.01 187.429 64.17 187.859 64.48C188.289 64.79 188.509 65.24 188.509 65.83C188.509 66.22 188.419 66.54 188.239 66.8C188.059 67.06 187.809 67.26 187.479 67.39C187.159 67.52 186.799 67.59 186.399 67.59L186.579 67.39C187.069 67.39 187.479 67.46 187.829 67.6C188.169 67.74 188.439 67.95 188.619 68.22C188.799 68.49 188.889 68.83 188.889 69.23C188.889 69.82 188.669 70.29 188.239 70.61C187.809 70.94 187.149 71.1 186.269 71.1H183.109V71.11ZM183.629 70.67H186.279C186.959 70.67 187.479 70.55 187.839 70.32C188.199 70.09 188.379 69.71 188.379 69.2C188.379 68.69 188.199 68.32 187.839 68.09C187.479 67.86 186.959 67.74 186.279 67.74H183.569V67.29H186.049C186.669 67.29 187.139 67.17 187.479 66.93C187.819 66.69 187.989 66.34 187.989 65.87C187.989 65.4 187.819 65.05 187.479 64.82C187.139 64.58 186.669 64.46 186.049 64.46H183.629V70.67Z" fill="white"/>
<path d="M193.79 70.65H198.17V71.12H193.27V64.02H198.02V64.49H193.79V70.66V70.65ZM193.73 67.28H197.57V67.74H193.73V67.28Z" fill="white"/>
<path d="M203.96 71.11V64.48H201.4V64.01H207.03V64.48H204.47V71.11H203.95H203.96Z" fill="white"/>
<path d="M212.3 71.11V64.48H209.74V64.01H215.37V64.48H212.81V71.11H212.29H212.3Z" fill="white"/>
<path d="M219.709 70.65H224.089V71.12H219.189V64.02H223.939V64.49H219.709V70.66V70.65ZM219.639 67.28H223.479V67.74H219.639V67.28Z" fill="white"/>
<path d="M228.51 71.11V64.01H231.06C231.65 64.01 232.17 64.1 232.59 64.29C233.01 64.48 233.34 64.75 233.57 65.11C233.8 65.47 233.91 65.9 233.91 66.4C233.91 66.9 233.79 67.32 233.57 67.67C233.34 68.02 233.01 68.3 232.59 68.49C232.16 68.68 231.65 68.78 231.06 68.78H228.8L229.03 68.54V71.11H228.51ZM229.03 68.58L228.8 68.34H231.06C231.82 68.34 232.4 68.17 232.8 67.83C233.2 67.49 233.39 67.02 233.39 66.41C233.39 65.8 233.19 65.32 232.8 64.99C232.41 64.66 231.82 64.49 231.06 64.49H228.8L229.03 64.24V68.59V68.58ZM233.44 71.11L231.59 68.53H232.18L234.03 71.11H233.44Z" fill="white"/>
<path d="M243.49 71.11V64.01H244.01V70.64H248.1V71.11H243.49Z" fill="white"/>
<path d="M251.961 71.11V64.01H252.481V71.11H251.961Z" fill="white"/>
<path d="M259.381 71.11L256.221 64.01H256.791L259.811 70.8H259.501L262.531 64.01H263.071L259.911 71.11H259.381Z" fill="white"/>
<path d="M266.74 71.11V64.01H267.26V71.11H266.74Z" fill="white"/>
<path d="M272.27 71.11V64.01H272.71L277.77 70.47H277.54V64.01H278.06V71.11H277.63L272.56 64.65H272.79V71.11H272.27Z" fill="white"/>
<path d="M286.091 71.16C285.561 71.16 285.061 71.07 284.611 70.89C284.161 70.71 283.761 70.46 283.431 70.13C283.101 69.8 282.841 69.42 282.651 68.99C282.471 68.55 282.381 68.07 282.381 67.55C282.381 67.03 282.471 66.55 282.651 66.12C282.831 65.68 283.091 65.3 283.431 64.98C283.771 64.66 284.161 64.4 284.611 64.23C285.061 64.05 285.561 63.96 286.101 63.96C286.641 63.96 287.091 64.04 287.531 64.2C287.971 64.36 288.341 64.61 288.661 64.93L288.331 65.28C288.021 64.98 287.681 64.76 287.311 64.63C286.941 64.5 286.541 64.44 286.111 64.44C285.651 64.44 285.221 64.52 284.831 64.67C284.441 64.83 284.101 65.05 283.811 65.33C283.521 65.61 283.291 65.95 283.141 66.32C282.981 66.7 282.901 67.11 282.901 67.56C282.901 68.01 282.981 68.42 283.141 68.8C283.301 69.18 283.521 69.51 283.811 69.79C284.101 70.07 284.441 70.29 284.831 70.45C285.221 70.61 285.651 70.68 286.111 70.68C286.531 70.68 286.931 70.62 287.301 70.49C287.681 70.36 288.021 70.15 288.331 69.85L288.621 70.25C288.301 70.55 287.921 70.78 287.481 70.93C287.041 71.08 286.571 71.16 286.091 71.16ZM288.131 70.2V67.59H288.631V70.25L288.131 70.2Z" fill="white"/>
<path d="M97.9902 71.11V64.01H100.54C101.14 64.01 101.65 64.1 102.07 64.29C102.5 64.48 102.82 64.75 103.05 65.11C103.28 65.47 103.4 65.9 103.4 66.4C103.4 66.9 103.28 67.32 103.05 67.68C102.82 68.04 102.49 68.31 102.07 68.5C101.64 68.69 101.13 68.78 100.54 68.78H98.2802L98.5102 68.54V71.11H97.9902ZM98.5102 68.58L98.2802 68.33H100.54C101.3 68.33 101.88 68.16 102.28 67.83C102.68 67.5 102.87 67.02 102.87 66.41C102.87 65.8 102.67 65.32 102.28 64.99C101.88 64.66 101.3 64.49 100.54 64.49H98.2802L98.5102 64.24V68.59V68.58Z" fill="#AE613A"/>
<path d="M110.79 71.16C110.26 71.16 109.77 71.07 109.32 70.89C108.87 70.71 108.48 70.46 108.14 70.13C107.81 69.8 107.55 69.42 107.36 68.98C107.18 68.54 107.09 68.07 107.09 67.56C107.09 67.05 107.18 66.57 107.36 66.14C107.54 65.71 107.8 65.32 108.14 64.99C108.47 64.66 108.87 64.41 109.32 64.23C109.77 64.05 110.26 63.96 110.79 63.96C111.32 63.96 111.81 64.05 112.26 64.23C112.71 64.41 113.1 64.66 113.43 64.98C113.76 65.31 114.02 65.69 114.21 66.12C114.4 66.56 114.49 67.03 114.49 67.55C114.49 68.07 114.4 68.55 114.21 68.99C114.02 69.43 113.77 69.81 113.43 70.13C113.1 70.45 112.71 70.71 112.26 70.89C111.81 71.07 111.32 71.16 110.79 71.16ZM110.79 70.69C111.24 70.69 111.66 70.61 112.05 70.46C112.44 70.3 112.77 70.08 113.05 69.8C113.33 69.52 113.56 69.18 113.71 68.81C113.87 68.43 113.95 68.02 113.95 67.57C113.95 67.12 113.87 66.7 113.71 66.33C113.55 65.96 113.33 65.62 113.05 65.34C112.77 65.06 112.43 64.84 112.05 64.68C111.66 64.52 111.25 64.45 110.79 64.45C110.33 64.45 109.92 64.53 109.53 64.68C109.14 64.84 108.81 65.06 108.52 65.34C108.23 65.62 108.01 65.95 107.85 66.33C107.69 66.71 107.61 67.12 107.61 67.57C107.61 68.02 107.69 68.43 107.85 68.81C108.01 69.19 108.23 69.52 108.52 69.8C108.81 70.08 109.14 70.3 109.53 70.46C109.92 70.62 110.33 70.69 110.79 70.69Z" fill="#AE613A"/>
<path d="M120.18 71.11L117.77 64.01H118.32L120.61 70.8H120.34L122.7 64.01H123.2L125.54 70.8H125.28L127.59 64.01H128.1L125.7 71.11H125.15L122.88 64.55H123.01L120.74 71.11H120.18Z" fill="#AE613A"/>
<path d="M132.641 70.65H137.021V71.12H132.121V64.02H136.871V64.49H132.641V70.66V70.65ZM132.581 67.28H136.421V67.74H132.581V67.28Z" fill="#AE613A"/>
<path d="M141.439 71.11V64.01H143.989C144.589 64.01 145.099 64.1 145.519 64.29C145.949 64.48 146.269 64.75 146.499 65.11C146.729 65.47 146.849 65.9 146.849 66.4C146.849 66.9 146.729 67.32 146.499 67.67C146.269 68.02 145.939 68.3 145.519 68.49C145.089 68.68 144.579 68.78 143.989 68.78H141.729L141.959 68.54V71.11H141.439ZM141.959 68.58L141.729 68.34H143.989C144.749 68.34 145.329 68.17 145.729 67.83C146.129 67.49 146.319 67.02 146.319 66.41C146.319 65.8 146.119 65.32 145.729 64.99C145.329 64.66 144.749 64.49 143.989 64.49H141.729L141.959 64.24V68.59V68.58ZM146.369 71.11L144.519 68.53H145.109L146.959 71.11H146.369Z" fill="#AE613A"/>
<path d="M151.279 71.11V64.01H151.799V71.11H151.279Z" fill="#AE613A"/>
<path d="M156.811 71.11V64.01H157.251L162.311 70.47H162.081V64.01H162.601V71.11H162.171L157.101 64.65H157.331V71.11H156.811Z" fill="#AE613A"/>
<path d="M170.63 71.16C170.1 71.16 169.6 71.07 169.15 70.89C168.7 70.71 168.3 70.46 167.97 70.13C167.64 69.81 167.38 69.42 167.19 68.99C167.01 68.55 166.92 68.07 166.92 67.55C166.92 67.03 167.01 66.55 167.19 66.12C167.37 65.68 167.63 65.3 167.97 64.98C168.31 64.66 168.7 64.4 169.15 64.23C169.6 64.05 170.09 63.96 170.64 63.96C171.19 63.96 171.63 64.04 172.07 64.2C172.51 64.36 172.88 64.61 173.2 64.93L172.88 65.28C172.57 64.98 172.23 64.76 171.86 64.63C171.49 64.5 171.09 64.44 170.66 64.44C170.2 64.44 169.77 64.52 169.38 64.67C168.99 64.83 168.65 65.05 168.36 65.33C168.07 65.61 167.84 65.95 167.69 66.32C167.53 66.7 167.45 67.11 167.45 67.56C167.45 68.01 167.53 68.42 167.69 68.8C167.85 69.18 168.07 69.51 168.36 69.79C168.65 70.07 168.99 70.29 169.38 70.45C169.77 70.61 170.2 70.68 170.66 70.68C171.08 70.68 171.48 70.62 171.85 70.49C172.23 70.36 172.57 70.15 172.88 69.85L173.17 70.25C172.85 70.55 172.47 70.78 172.03 70.93C171.59 71.08 171.12 71.16 170.64 71.16H170.63ZM172.67 70.2V67.59H173.17V70.25L172.67 70.2Z" fill="#AE613A"/>
<path d="M183.109 71.11V64.01H186.069C186.829 64.01 187.429 64.17 187.859 64.48C188.289 64.79 188.509 65.24 188.509 65.83C188.509 66.22 188.419 66.54 188.239 66.8C188.059 67.06 187.809 67.26 187.479 67.39C187.159 67.52 186.799 67.59 186.399 67.59L186.579 67.39C187.069 67.39 187.479 67.46 187.829 67.6C188.169 67.74 188.439 67.95 188.619 68.22C188.799 68.49 188.889 68.83 188.889 69.23C188.889 69.82 188.669 70.29 188.239 70.61C187.809 70.94 187.149 71.1 186.269 71.1H183.109V71.11ZM183.629 70.67H186.279C186.959 70.67 187.479 70.55 187.839 70.32C188.199 70.09 188.379 69.71 188.379 69.2C188.379 68.69 188.199 68.32 187.839 68.09C187.479 67.86 186.959 67.74 186.279 67.74H183.569V67.29H186.049C186.669 67.29 187.139 67.17 187.479 66.93C187.819 66.69 187.989 66.34 187.989 65.87C187.989 65.4 187.819 65.05 187.479 64.82C187.139 64.58 186.669 64.46 186.049 64.46H183.629V70.67Z" fill="#AE613A"/>
<path d="M193.79 70.65H198.17V71.12H193.27V64.02H198.02V64.49H193.79V70.66V70.65ZM193.73 67.28H197.57V67.74H193.73V67.28Z" fill="#AE613A"/>
<path d="M203.96 71.11V64.48H201.4V64.01H207.03V64.48H204.47V71.11H203.95H203.96Z" fill="#AE613A"/>
<path d="M212.3 71.11V64.48H209.74V64.01H215.37V64.48H212.81V71.11H212.29H212.3Z" fill="#AE613A"/>
<path d="M219.709 70.65H224.089V71.12H219.189V64.02H223.939V64.49H219.709V70.66V70.65ZM219.639 67.28H223.479V67.74H219.639V67.28Z" fill="#AE613A"/>
<path d="M228.51 71.11V64.01H231.06C231.65 64.01 232.17 64.1 232.59 64.29C233.01 64.48 233.34 64.75 233.57 65.11C233.8 65.47 233.91 65.9 233.91 66.4C233.91 66.9 233.79 67.32 233.57 67.67C233.34 68.02 233.01 68.3 232.59 68.49C232.16 68.68 231.65 68.78 231.06 68.78H228.8L229.03 68.54V71.11H228.51ZM229.03 68.58L228.8 68.34H231.06C231.82 68.34 232.4 68.17 232.8 67.83C233.2 67.49 233.39 67.02 233.39 66.41C233.39 65.8 233.19 65.32 232.8 64.99C232.41 64.66 231.82 64.49 231.06 64.49H228.8L229.03 64.24V68.59V68.58ZM233.44 71.11L231.59 68.53H232.18L234.03 71.11H233.44Z" fill="#AE613A"/>
<path d="M243.49 71.11V64.01H244.01V70.64H248.1V71.11H243.49Z" fill="#AE613A"/>
<path d="M251.961 71.11V64.01H252.481V71.11H251.961Z" fill="#AE613A"/>
<path d="M259.381 71.11L256.221 64.01H256.791L259.811 70.8H259.501L262.531 64.01H263.071L259.911 71.11H259.381Z" fill="#AE613A"/>
<path d="M266.74 71.11V64.01H267.26V71.11H266.74Z" fill="#AE613A"/>
<path d="M272.27 71.11V64.01H272.71L277.77 70.47H277.54V64.01H278.06V71.11H277.63L272.56 64.65H272.79V71.11H272.27Z" fill="#AE613A"/>
<path d="M286.091 71.16C285.561 71.16 285.061 71.07 284.611 70.89C284.161 70.71 283.761 70.46 283.431 70.13C283.101 69.8 282.841 69.42 282.651 68.99C282.471 68.55 282.381 68.07 282.381 67.55C282.381 67.03 282.471 66.55 282.651 66.12C282.831 65.68 283.091 65.3 283.431 64.98C283.771 64.66 284.161 64.4 284.611 64.23C285.061 64.05 285.561 63.96 286.101 63.96C286.641 63.96 287.091 64.04 287.531 64.2C287.971 64.36 288.341 64.61 288.661 64.93L288.331 65.28C288.021 64.98 287.681 64.76 287.311 64.63C286.941 64.5 286.541 64.44 286.111 64.44C285.651 64.44 285.221 64.52 284.831 64.67C284.441 64.83 284.101 65.05 283.811 65.33C283.521 65.61 283.291 65.95 283.141 66.32C282.981 66.7 282.901 67.11 282.901 67.56C282.901 68.01 282.981 68.42 283.141 68.8C283.301 69.18 283.521 69.51 283.811 69.79C284.101 70.07 284.441 70.29 284.831 70.45C285.221 70.61 285.651 70.68 286.111 70.68C286.531 70.68 286.931 70.62 287.301 70.49C287.681 70.36 288.021 70.15 288.331 69.85L288.621 70.25C288.301 70.55 287.921 70.78 287.481 70.93C287.041 71.08 286.571 71.16 286.091 71.16ZM288.131 70.2V67.59H288.631V70.25L288.131 70.2Z" fill="#AE613A"/>
<path d="M55.4 50.89C54.81 50.77 54.3 50.4 54 49.88L52.85 47.9L52.75 47.73L47.61 38.83L46.19 36.37L44.6 33.62C43.72 32.1 42.09 31.16 40.33 31.16H38.9L32.75 50.25H46.7L25.99 71.24L32.75 50.25H19.01C18.55 50.25 18.23 49.81 18.37 49.38L23.92 31.15L33.41 0L18.01 27.6L17.66 28.22L16.03 31.14H16.02L12.93 36.49L11.63 38.75V38.77L6.45 47.71L5.17 49.93C4.87 50.42 4.38 50.76 3.81 50.88L0 51.66V57.65L3.81 58.43C4.37 58.54 4.84999 58.87 5.14999 59.35L6.45 61.6L11.62 70.54C11.62 70.54 11.64 70.58 11.66 70.61L12.96 72.87C12.96 72.87 12.96 72.87 12.96 72.88C13.2 73.37 13.24 73.95 13.07 74.48L11.46 79.27L16.65 82.27L19.62 78.91C20 78.47 20.55 78.22 21.14 78.2H38.1C38.68 78.21 39.23 78.47 39.61 78.91L42.58 82.27L47.77 79.27L46.15 74.44C45.96 73.87 46.02 73.24 46.32 72.72L52.73 61.61L53.98 59.45C54.28 58.93 54.79 58.56 55.38 58.44L59.2 57.66V51.67L55.38 50.89H55.39H55.4Z" fill="white"/>
<path d="M31.1898 5.23999L23.3498 30.96L23.3298 31.05L17.7998 49.19C17.6798 49.58 17.7498 50 17.9898 50.32C18.2298 50.64 18.6098 50.84 19.0198 50.84H31.9298L25.4298 71.04L24.6498 73.47L26.4398 71.66L47.1498 50.67L48.1698 49.64H33.5998L39.3598 31.76H40.3398C41.8798 31.76 43.3098 32.59 44.0798 33.92L45.6698 36.67L47.0898 39.13L52.2298 48.03L52.3298 48.21L53.4798 50.19C53.8698 50.86 54.5198 51.33 55.2798 51.48L58.5998 52.15V57.15L55.2798 57.82C54.5198 57.97 53.8698 58.44 53.4798 59.12L52.2698 61.21L52.2298 61.28L45.8198 72.39C45.4298 73.06 45.3498 73.87 45.5998 74.6L47.0598 78.96L42.7298 81.46L40.0798 78.47C39.5798 77.91 38.8698 77.57 38.1098 77.56H21.1298C20.3798 77.58 19.6598 77.91 19.1698 78.47L16.5198 81.46L12.1898 78.96L13.6398 74.64C13.8498 74.02 13.8198 73.32 13.5598 72.72V72.6L13.4298 72.48L12.1798 70.31C12.1798 70.31 12.1498 70.26 12.1298 70.23L7.04977 61.43V60.99H6.78976L5.64977 59.02C5.25977 58.4 4.63977 57.98 3.91977 57.84L0.599762 57.17V52.17L3.91977 51.5C4.64977 51.35 5.28977 50.91 5.68977 50.26L6.96977 48.04L12.1398 39.1L12.1598 39.06L13.4498 36.82L16.3598 31.77H16.3798L16.5598 31.46L18.1998 28.53L18.5498 27.91L31.1898 5.25999M33.4198 0L18.0198 27.6L17.6698 28.22L16.0398 31.14H16.0298L12.9398 36.49L11.6398 38.75V38.77L6.45976 47.71L5.17976 49.93C4.87976 50.42 4.38976 50.76 3.81976 50.88L0.00976562 51.66V57.65L3.81976 58.43C4.37976 58.54 4.85977 58.87 5.15977 59.35L6.45976 61.6L11.6298 70.54C11.6298 70.54 11.6498 70.58 11.6698 70.61L12.9698 72.87C12.9698 72.87 12.9698 72.87 12.9698 72.88C13.2098 73.37 13.2498 73.95 13.0798 74.48L11.4698 79.27L16.6598 82.27L19.6298 78.91C20.0098 78.47 20.5598 78.22 21.1498 78.2H38.1098C38.6898 78.21 39.2398 78.47 39.6198 78.91L42.5898 82.27L47.7798 79.27L46.1598 74.44C45.9698 73.87 46.0298 73.24 46.3298 72.72L52.7398 61.61L53.9898 59.45C54.2898 58.93 54.7998 58.56 55.3898 58.44L59.2098 57.66V51.67L55.3898 50.89C54.7998 50.77 54.2898 50.4 53.9898 49.88L52.8398 47.9L52.7398 47.73L47.5998 38.83L46.1798 36.37L44.5898 33.62C43.7098 32.1 42.0798 31.16 40.3198 31.16H38.8898L32.7398 50.25H46.6898L25.9798 71.24L32.7398 50.25H18.9998C18.5398 50.25 18.2198 49.81 18.3598 49.38L23.9098 31.15L33.3998 0H33.4098H33.4198Z" fill="white"/>
<path d="M55.4 50.89C54.81 50.77 54.3 50.4 54 49.88L52.85 47.9L52.75 47.73L47.61 38.83L46.19 36.37L44.6 33.62C43.72 32.1 42.09 31.16 40.33 31.16H38.9L32.75 50.25H46.7L25.99 71.24L32.75 50.25H19.01C18.55 50.25 18.23 49.81 18.37 49.38L23.92 31.15L33.41 0L18.01 27.6L17.66 28.22L16.03 31.14H16.02L12.93 36.49L11.63 38.75V38.77L6.45 47.71L5.17 49.93C4.87 50.42 4.38 50.76 3.81 50.88L0 51.66V57.65L3.81 58.43C4.37 58.54 4.84999 58.87 5.14999 59.35L6.45 61.6L11.62 70.54C11.62 70.54 11.64 70.58 11.66 70.61L12.96 72.87C12.96 72.87 12.96 72.87 12.96 72.88C13.2 73.37 13.24 73.95 13.07 74.48L11.46 79.27L16.65 82.27L19.62 78.91C20 78.47 20.55 78.22 21.14 78.2H38.1C38.68 78.21 39.23 78.47 39.61 78.91L42.58 82.27L47.77 79.27L46.15 74.44C45.96 73.87 46.02 73.24 46.32 72.72L52.73 61.61L53.98 59.45C54.28 58.93 54.79 58.56 55.38 58.44L59.2 57.66V51.67L55.38 50.89H55.39H55.4Z" fill="#AE613A"/>
<path d="M31.1898 5.23999L23.3498 30.96L23.3298 31.05L17.7998 49.19C17.6798 49.58 17.7498 50 17.9898 50.32C18.2298 50.64 18.6098 50.84 19.0198 50.84H31.9298L25.4298 71.04L24.6498 73.47L26.4398 71.66L47.1498 50.67L48.1698 49.64H33.5998L39.3598 31.76H40.3398C41.8798 31.76 43.3098 32.59 44.0798 33.92L45.6698 36.67L47.0898 39.13L52.2298 48.03L52.3298 48.21L53.4798 50.19C53.8698 50.86 54.5198 51.33 55.2798 51.48L58.5998 52.15V57.15L55.2798 57.82C54.5198 57.97 53.8698 58.44 53.4798 59.12L52.2698 61.21L52.2298 61.28L45.8198 72.39C45.4298 73.06 45.3498 73.87 45.5998 74.6L47.0598 78.96L42.7298 81.46L40.0798 78.47C39.5798 77.91 38.8698 77.57 38.1098 77.56H21.1298C20.3798 77.58 19.6598 77.91 19.1698 78.47L16.5198 81.46L12.1898 78.96L13.6398 74.64C13.8498 74.02 13.8198 73.32 13.5598 72.72V72.6L13.4298 72.48L12.1798 70.31C12.1798 70.31 12.1498 70.26 12.1298 70.23L7.04977 61.43V60.99H6.78976L5.64977 59.02C5.25977 58.4 4.63977 57.98 3.91977 57.84L0.599762 57.17V52.17L3.91977 51.5C4.64977 51.35 5.28977 50.91 5.68977 50.26L6.96977 48.04L12.1398 39.1L12.1598 39.06L13.4498 36.82L16.3598 31.77H16.3798L16.5598 31.46L18.1998 28.53L18.5498 27.91L31.1898 5.25999M33.4198 0L18.0198 27.6L17.6698 28.22L16.0398 31.14H16.0298L12.9398 36.49L11.6398 38.75V38.77L6.45976 47.71L5.17976 49.93C4.87976 50.42 4.38976 50.76 3.81976 50.88L0.00976562 51.66V57.65L3.81976 58.43C4.37976 58.54 4.85977 58.87 5.15977 59.35L6.45976 61.6L11.6298 70.54C11.6298 70.54 11.6498 70.58 11.6698 70.61L12.9698 72.87C12.9698 72.87 12.9698 72.87 12.9698 72.88C13.2098 73.37 13.2498 73.95 13.0798 74.48L11.4698 79.27L16.6598 82.27L19.6298 78.91C20.0098 78.47 20.5598 78.22 21.1498 78.2H38.1098C38.6898 78.21 39.2398 78.47 39.6198 78.91L42.5898 82.27L47.7798 79.27L46.1598 74.44C45.9698 73.87 46.0298 73.24 46.3298 72.72L52.7398 61.61L53.9898 59.45C54.2898 58.93 54.7998 58.56 55.3898 58.44L59.2098 57.66V51.67L55.3898 50.89C54.7998 50.77 54.2898 50.4 53.9898 49.88L52.8398 47.9L52.7398 47.73L47.5998 38.83L46.1798 36.37L44.5898 33.62C43.7098 32.1 42.0798 31.16 40.3198 31.16H38.8898L32.7398 50.25H46.6898L25.9798 71.24L32.7398 50.25H18.9998C18.5398 50.25 18.2198 49.81 18.3598 49.38L23.9098 31.15L33.3998 0H33.4098H33.4198Z" fill="#AE613A"/>
</svg>
